<svg width="32" height="39" viewBox="0 0 32 39" fill="none" xmlns="http://www.w3.org/2000/svg">
<circle cx="16" cy="19" r="16" fill="black"/>
<path d="M18 7.72727L17.7727 24.4545H15.1364L14.9091 7.72727H18ZM16.4545 31.1818C15.8939 31.1818 15.4129 30.9811 15.0114 30.5795C14.6098 30.178 14.4091 29.697 14.4091 29.1364C14.4091 28.5758 14.6098 28.0947 15.0114 27.6932C15.4129 27.2917 15.8939 27.0909 16.4545 27.0909C17.0152 27.0909 17.4962 27.2917 17.8977 27.6932C18.2992 28.0947 18.5 28.5758 18.5 29.1364C18.5 29.5076 18.4053 29.8485 18.2159 30.1591C18.0341 30.4697 17.7879 30.7197 17.4773 30.9091C17.1742 31.0909 16.8333 31.1818 16.4545 31.1818Z" fill="white"/>
</svg>
