<svg width="24" height="24" viewBox="0 0 24 24" fill="none" xmlns="http://www.w3.org/2000/svg">
<path d="M17.0343 12.6353L17.0343 12.6352C17.018 11.0374 17.7458 9.86452 18.4494 9.11259C18.5966 8.95525 18.7442 8.81454 18.8862 8.69004C17.9426 7.98857 16.8409 7.85391 16.3426 7.83524L16.3156 7.83422L16.2886 7.83175C15.6482 7.77298 14.9762 7.94141 14.2668 8.18215C14.1414 8.2247 13.9913 8.27806 13.8379 8.33258C13.6275 8.40737 13.4109 8.48436 13.2434 8.53867C12.9333 8.63922 12.5366 8.75293 12.1476 8.75293C11.7769 8.75293 11.4139 8.66092 11.1164 8.56946C10.8936 8.50096 10.649 8.41315 10.4211 8.33132C10.3447 8.30388 10.2701 8.27711 10.1989 8.25197C9.5791 8.03322 9.03487 7.87457 8.51734 7.88364L8.51261 7.88372C6.96427 7.90349 5.55101 8.69911 4.76831 9.92729L17.0343 12.6353ZM17.0343 12.6353C17.06 15.1434 18.6702 16.5228 19.7255 17.1574M17.0343 12.6353L19.7255 17.1574M6.1206 18.8592L6.12071 18.8594C6.58959 19.4726 7.03929 20.0351 7.52106 20.4435C7.99545 20.8457 8.40013 21.0116 8.78189 20.9991C9.25977 20.9815 9.57943 20.8589 10.0703 20.6707C10.0998 20.6593 10.13 20.6477 10.1609 20.6359C10.7243 20.4205 11.4128 20.1797 12.4378 20.1797C13.4757 20.1797 14.1597 20.441 14.7063 20.6547C15.2199 20.8555 15.5456 20.9826 16.0694 20.9738L6.1206 18.8592ZM6.1206 18.8592C5.26224 17.7371 4.49034 16.1246 4.16404 14.4532M6.1206 18.8592L4.16404 14.4532M19.7255 17.1574C19.5037 17.6333 19.1608 18.2683 18.6737 18.9131C18.2036 19.5342 17.7971 20.0525 17.3524 20.4285C16.9305 20.7852 16.529 20.9658 16.0698 20.9738L19.7255 17.1574ZM4.16404 14.4532C3.83683 12.7771 3.9787 11.1674 4.76816 9.92751L4.16404 14.4532ZM14.5132 4.51839L14.5128 4.51882C14.1387 4.92882 13.6278 5.26658 13.0893 5.45474C13.2486 5.00544 13.5279 4.56209 13.8682 4.20629L13.8723 4.20201C14.2293 3.8243 14.7388 3.49761 15.265 3.2802C15.1107 3.72113 14.8508 4.1489 14.5132 4.51839Z" stroke="black" stroke-width="2"/>
</svg>
