<svg width="24" height="24" viewBox="0 0 24 24" fill="none" xmlns="http://www.w3.org/2000/svg">
<path fill-rule="evenodd" clip-rule="evenodd" d="M15.2515 5.19287C16.0235 4.34788 16.5438 3.17098 16.4014 2C15.289 2.04 13.9432 2.67115 13.1455 3.51514C12.4292 4.26413 11.8039 5.4609 11.972 6.60889C13.213 6.69588 14.4796 6.03885 15.2515 5.19287ZM18.0342 12.625C18.0653 15.652 20.9679 16.6589 21 16.6719C20.9764 16.7429 20.5364 18.1066 19.4711 19.5166C18.5492 20.7346 17.5931 21.9476 16.0867 21.9736C14.607 21.9986 14.1305 21.1797 12.4378 21.1797C10.7461 21.1797 10.2172 21.9475 8.81675 21.9985C7.36277 22.0475 6.25462 20.6808 5.32634 19.4668C3.42695 16.9838 1.97619 12.4501 3.92482 9.39014C4.89272 7.87116 6.62186 6.90779 8.49983 6.88379C9.92704 6.85879 11.275 7.75293 12.1476 7.75293C13.0202 7.75293 14.6584 6.67794 16.38 6.83594C17.1006 6.86294 19.1242 7.09885 20.4229 8.81982C20.318 8.87882 18.0085 10.095 18.0342 12.625Z" fill="black"/>
</svg>
