<svg width="24" height="24" viewBox="0 0 24 24" fill="none" xmlns="http://www.w3.org/2000/svg">
<path d="M12.3373 2C6.52083 2 2 6.58167 2 12C2 17.4783 6.57682 22 12.3373 22C16.0268 22 19.3037 20.1217 21.1386 17.2467C21.1732 17.1925 21.1963 17.1321 21.2064 17.0692C21.2165 17.0062 21.2134 16.9419 21.1973 16.8801C21.1813 16.8184 21.1525 16.7603 21.1128 16.7095C21.0732 16.6586 21.0233 16.616 20.9663 16.5842L16.1853 13.9142C16.0771 13.854 15.9494 13.8358 15.8279 13.8631C15.7064 13.8905 15.6002 13.9615 15.5306 14.0617C15.1802 14.5702 14.7053 14.9871 14.1482 15.2754C13.5911 15.5637 12.969 15.7144 12.3373 15.7142C10.2198 15.7142 8.49696 14.0475 8.49696 12C8.49696 9.95167 10.2198 8.28583 12.3373 8.28583C13.6217 8.28583 14.8156 8.90333 15.5306 9.93833C15.6 10.0387 15.7063 10.1098 15.8278 10.1371C15.9494 10.1645 16.0772 10.1462 16.1853 10.0858L20.9663 7.41583C21.0233 7.38398 21.0732 7.34136 21.1128 7.29052C21.1525 7.23967 21.1813 7.18164 21.1973 7.11985C21.2134 7.05806 21.2165 6.99378 21.2064 6.93082C21.1963 6.86787 21.1732 6.80751 21.1386 6.75333C20.2129 5.30015 18.9182 4.1004 17.3775 3.26835C15.8369 2.4363 14.1017 1.99966 12.3373 2ZM12.3373 4.93917C14.9629 4.93917 17.2647 6.28083 18.5508 8.29417L15.9751 9.7325C15.9432 9.75 15.9019 9.74333 15.8821 9.71083C15.493 9.14646 14.9658 8.6838 14.3474 8.36397C13.729 8.04413 13.0385 7.87703 12.3373 7.8775C11.2074 7.87882 10.1243 8.31358 9.32541 9.08641C8.52651 9.85925 8.07709 10.9071 8.07572 12C8.07572 12.75 8.28333 13.4542 8.64685 14.0608L6.62937 15.1883C6.59656 15.2067 6.56794 15.2314 6.54521 15.2608C6.52249 15.2901 6.50613 15.3237 6.49712 15.3593C6.48811 15.3949 6.48664 15.432 6.49278 15.4682C6.49893 15.5044 6.51257 15.539 6.53289 15.57C7.15358 16.5153 8.01109 17.2936 9.02582 17.8326C10.0405 18.3717 11.1796 18.654 12.3373 18.6533C13.5089 18.6539 14.6612 18.3648 15.6848 17.8133C16.7084 17.2618 17.5692 16.4664 18.1856 15.5025L20.7552 16.9375C20.7634 16.942 20.7706 16.948 20.7762 16.9552C20.7819 16.9625 20.786 16.9707 20.7883 16.9795C20.7905 16.9884 20.7909 16.9975 20.7894 17.0065C20.7878 17.0155 20.7844 17.024 20.7793 17.0317C19.8954 18.429 18.6543 19.5826 17.1757 20.3813C15.6971 21.18 14.0307 21.5968 12.3373 21.5917C6.86971 21.5917 2.4221 17.2883 2.4221 12C2.4221 10.2542 2.90623 8.61667 3.75216 7.205L5.77654 8.335C5.90576 8.40833 6.07374 8.36833 6.15471 8.24333C6.81152 7.23097 7.7234 6.39661 8.80481 5.81852C9.88622 5.24043 11.1017 4.9384 12.3373 4.93917ZM21.4452 9.45833C21.3437 9.45758 21.2439 9.48289 21.1558 9.53167L17.5817 11.5275C17.4964 11.5754 17.4256 11.6442 17.3764 11.7269C17.3272 11.8096 17.3013 11.9033 17.3013 11.9987C17.3013 12.0942 17.3272 12.1879 17.3764 12.2706C17.4256 12.3533 17.4964 12.4221 17.5817 12.47L21.1558 14.4667C21.5297 14.675 22 14.4133 22 13.995V10.0033C21.9998 9.86029 21.9416 9.72304 21.8378 9.62111C21.734 9.51919 21.5931 9.46074 21.4452 9.45833ZM20.8741 10.9458V13.0525L18.9876 12L20.8741 10.9458Z" fill="black"/>
</svg>
