<svg width="24" height="24" viewBox="0 0 24 24" fill="none" xmlns="http://www.w3.org/2000/svg">
<path d="M3.37249 7.00161C3.05689 7.48494 2.68758 8.3345 2.50249 8.89661C1.73602 11.2242 1.85632 13.681 2.79402 15.8657C3.38222 17.2362 4.22554 18.3315 5.06103 19.1341C5.50669 19.5623 6.02224 19.9741 6.61338 20.3591C8.50388 21.5903 10.9271 22.1925 13.3132 21.9411C15.2063 21.7416 16.9885 21.024 18.3497 20.0093C18.4802 19.9121 18.6179 19.8138 18.7415 19.7123C19.0488 19.4599 19.4609 19.0914 19.7294 18.794C19.8857 18.6209 19.9738 18.5384 20.141 18.3382C20.3108 18.135 20.5953 17.7698 20.7387 17.5512C20.8043 17.4511 20.9782 17.2388 20.9811 17.1015C20.9855 16.895 20.7919 16.8297 20.6502 16.7502L19.3134 15.9946C19.1648 15.9125 19.0215 15.8318 18.8723 15.746C18.791 15.6992 18.475 15.5152 18.4123 15.4933M3.37249 7.00161C3.43517 7.01241 3.7662 7.21373 3.84353 7.25649L4.19073 7.45323C4.21154 7.46584 4.23278 7.47631 4.24543 7.48335C4.26837 7.4961 4.27838 7.50421 4.30545 7.5189L4.59274 7.68001C4.61415 7.69294 4.63992 7.70638 4.65515 7.71452C4.67041 7.72269 4.70101 7.73894 4.71116 7.74462L5.59134 8.24209C5.63268 8.26429 5.67108 8.28806 5.70754 8.30769C5.79132 8.35281 5.86994 8.41366 5.97591 8.39118C6.04734 8.37605 6.11146 8.34165 6.14801 8.28844L6.89726 7.31537L7.25997 6.95304C7.3269 6.89424 7.37469 6.83207 7.44809 6.77812L7.79244 6.49545C7.98213 6.34964 8.17928 6.20513 8.39124 6.07898L8.64224 5.93065C8.90763 5.78183 9.19061 5.64494 9.48284 5.52457L9.74795 5.42394C9.7972 5.40832 9.83964 5.39362 9.88449 5.37855C9.96958 5.34996 10.057 5.32134 10.1581 5.28984C11.0113 5.02384 12.1386 4.91959 13.1279 5.04856C13.8711 5.14546 14.5573 5.33589 15.2309 5.63137L16.3126 6.24087C16.3498 6.26508 16.3882 6.29345 16.4206 6.31478L16.5241 6.39156C16.5278 6.3943 16.5396 6.40241 16.5454 6.40661L17.3184 7.05929L17.7069 7.47875C17.7297 7.50525 17.7213 7.50188 17.7502 7.53154L17.9192 7.73656C17.9468 7.77406 17.9692 7.80544 17.9971 7.83908C18.0928 7.95437 18.1717 8.08274 18.2566 8.20503C18.3118 8.28463 18.4011 8.39968 18.433 8.48822M3.37249 7.00161C3.41501 6.8904 3.67196 6.51088 3.7513 6.39737C3.82327 6.29438 3.88821 6.20609 3.95796 6.11056C4.11071 5.90132 4.25796 5.74244 4.39804 5.563C4.50369 5.42767 4.63863 5.30045 4.75635 5.17438C5.03574 4.87515 5.31941 4.61274 5.64244 4.34733C6.19925 3.8898 6.76184 3.52404 7.42751 3.17054C9.23966 2.20821 11.7 1.72488 14.0592 2.16205C15.2334 2.37964 16.001 2.65851 17.0191 3.16697C17.5041 3.40924 18.1059 3.79262 18.5352 4.12949C18.6313 4.20498 18.716 4.27083 18.8104 4.34928L19.3298 4.80753C19.4676 4.93091 19.5728 5.04694 19.7067 5.178L20.0541 5.5661C20.2458 5.77259 20.5532 6.18791 20.6996 6.40184C20.7669 6.50027 20.8344 6.60162 20.8992 6.69556C21.1189 7.01419 20.8759 7.12209 20.6503 7.24788L19.6994 7.78488C19.6484 7.81339 18.5006 8.48244 18.433 8.48822M18.4123 15.4933C18.4139 15.5356 18.3892 15.5548 18.3521 15.6139L18.2102 15.8315C18.184 15.8735 18.1612 15.9017 18.1369 15.9394L17.7816 16.402C17.7605 16.4289 17.7652 16.4305 17.7395 16.4564L17.4823 16.7404C17.3677 16.8385 17.1735 17.0642 17.0137 17.1886L15.9679 17.955C15.9317 17.9778 15.8924 18.0037 15.8573 18.0241L15.5014 18.2141C15.2224 18.3609 14.6163 18.6017 14.3251 18.6837C13.7217 18.8537 13.2405 18.9451 12.6037 18.9822C12.4179 18.993 11.9308 18.9851 11.7275 18.9701C11.314 18.9397 11.003 18.8988 10.6121 18.809C10.5596 18.797 10.5178 18.7856 10.4654 18.7733C10.1132 18.6904 9.69628 18.5462 9.367 18.4058L8.87251 18.1724C8.52031 17.9765 8.08147 17.72 7.76675 17.4557L7.46795 17.2109C7.43687 17.1783 7.41258 17.1542 7.37141 17.1255C7.32381 17.0923 7.25577 17.0111 7.18831 16.9481L7.00233 16.7728C6.93523 16.6853 6.86127 16.6191 6.7884 16.5289L6.50144 16.1765C6.39879 16.0427 6.30303 15.909 6.20066 15.756C6.06218 15.549 6.18784 15.4169 6.36676 15.3201L7.3327 14.7744C7.36201 14.7581 7.34333 14.7682 7.36243 14.7564L7.59442 14.6254C7.61366 14.6138 7.637 14.6022 7.64928 14.5953L8.68818 14.0138M18.4123 15.4933C18.39 15.4608 16.2669 14.2813 16.0263 14.1402C15.7316 13.9675 15.5867 14.2979 15.4761 14.4348C15.3118 14.6382 15.1466 14.8069 14.967 14.9741C14.944 14.9955 14.9239 15.0078 14.8995 15.028C14.7458 15.1553 14.68 15.2103 14.4977 15.3267C14.2994 15.4533 14.1192 15.5508 13.8849 15.657C12.9552 16.0787 11.6968 16.1106 10.7264 15.7194C10.5129 15.6333 10.2755 15.5243 10.0994 15.4141C9.99497 15.3488 9.90998 15.2943 9.81521 15.2269C9.72498 15.1626 9.62347 15.0866 9.55049 15.0206C9.4459 14.9259 9.27638 14.7807 9.19257 14.6791C9.07485 14.5364 9.00642 14.4784 8.87414 14.2869C8.85296 14.2563 8.70033 14.0208 8.68818 14.0138M8.68818 14.0138C8.61829 13.8213 8.46868 13.6711 8.30734 13.1363C8.09396 12.4288 8.08131 11.6615 8.2759 10.9508C8.37087 10.604 8.49465 10.3507 8.64673 10.0613C8.82708 9.71809 9.12399 9.36606 9.41045 9.10253C10.6124 7.99678 12.274 7.69596 13.8423 8.32274C14.2836 8.4991 14.8299 8.86075 15.1578 9.2068C15.3266 9.38498 15.4403 9.50968 15.5936 9.72278C15.6374 9.78369 15.6743 9.84292 15.7534 9.87667C15.8413 9.9142 15.9302 9.91063 16.0112 9.86666C16.2853 9.7179 16.5485 9.5582 16.8225 9.40809C16.9852 9.31892 18.4067 8.52402 18.433 8.48822M21.3152 9.41872C21.1602 9.44586 20.6646 9.74816 20.4992 9.84205C20.2346 9.99224 19.9741 10.1428 19.7025 10.2915C19.1661 10.5852 18.6469 10.8972 18.1105 11.1913C17.9733 11.2665 17.8463 11.339 17.7154 11.4134C17.5817 11.4894 17.4339 11.5591 17.3557 11.6698C17.2653 11.7976 17.2139 11.9743 17.2693 12.1617C17.3202 12.3337 17.4219 12.4192 17.5615 12.4968C18.0964 12.794 18.6174 13.1025 19.1535 13.3966L20.739 14.2912C21.0276 14.458 21.3377 14.6955 21.6514 14.5452C22.0182 14.3693 21.9918 14.1114 21.9918 13.6442C21.9918 12.8295 21.9918 12.0149 21.9918 11.2002C21.9918 10.7962 22.0042 10.3737 21.9916 9.97206C21.9807 9.62563 21.6971 9.35186 21.3152 9.41872ZM18.9576 11.9946L20.8512 13.0726L20.8556 13.0243L20.8551 10.9737L20.8534 10.9282L18.9576 11.9946Z" stroke="black" stroke-width="0.75" stroke-miterlimit="22.9256"/>
</svg>
