<svg width="24" height="24" viewBox="0 0 24 24" fill="none" xmlns="http://www.w3.org/2000/svg">
<g clip-path="url(#clip0_144_38)">
<path d="M4.2069 11.7331C3.34128 10.2225 3.16503 8.81313 3.78065 7.74875C4.6044 6.32 6.67128 5.82188 9.28503 6.29688C9.43503 6.31938 9.53878 6.46313 9.51315 6.6125C9.48378 6.7625 9.33753 6.86 9.18753 6.82438C6.7719 6.385 4.9294 6.83063 4.24628 8.01562C3.7419 8.88813 3.89128 10.1056 4.67253 11.4663C4.75378 11.5963 4.7119 11.7656 4.57815 11.8438C4.4444 11.9187 4.27565 11.87 4.2069 11.7331ZM16.6388 6.67438C18.1688 6.69375 19.2688 7.16938 19.7669 8.02875C20.4507 9.21063 19.9169 11.0238 18.3344 12.8919C18.2269 13.0056 18.2369 13.185 18.3538 13.2825C18.4713 13.3831 18.65 13.3637 18.7413 13.24C20.4538 11.2188 21.0525 9.18375 20.2288 7.76125C19.6232 6.71313 18.3475 6.15938 16.6482 6.13688C16.495 6.12688 16.3619 6.2475 16.3619 6.40375C16.3588 6.55688 16.4857 6.68063 16.6419 6.67375L16.6388 6.67438ZM15.0957 19.3731C14.9688 19.2981 14.8025 19.3375 14.7275 19.4644C13.9494 20.76 12.9925 21.4631 12.0094 21.4631C10.6419 21.4631 9.3369 20.0925 8.51003 17.7812C8.4644 17.6381 8.30503 17.56 8.16503 17.6119C8.0219 17.6638 7.95003 17.8238 8.00565 17.9637C8.89753 20.4606 10.3625 22 12.0094 22C13.2075 22 14.3175 21.1831 15.1863 19.7406C15.2613 19.6138 15.2219 19.4506 15.095 19.3725L15.0957 19.3731ZM21.225 17.2119C21.2219 18.2569 20.0432 18.8588 19.1938 18.2537C17.1494 19.4581 13.24 18.8463 9.5619 16.7206C7.99628 15.8156 6.62253 14.7281 5.5644 13.5663C5.46003 13.4588 5.46378 13.2831 5.57753 13.1788C5.68815 13.0781 5.86378 13.0875 5.9619 13.205C6.98065 14.325 8.30878 15.3794 9.82878 16.255C13.3019 18.26 16.9575 18.8556 18.8263 17.8438C18.4094 17.1113 18.8 16.1838 19.6138 15.9688C20.4307 15.7538 21.2282 16.3688 21.225 17.2119ZM5.34003 17.2119C5.34315 18.205 4.26253 18.8231 3.40628 18.3188C2.55003 17.8175 2.56628 16.5706 3.43565 16.0919C3.24003 13.6925 5.76003 10.48 9.56878 8.27938C11.1507 7.36813 12.7982 6.72 14.3444 6.38813C14.6763 6.3425 14.7775 6.81813 14.4582 6.9125C12.9675 7.23125 11.3719 7.86 9.83565 8.745C6.2519 10.8156 3.8819 13.8006 3.96315 15.9356C3.99565 15.9325 4.02503 15.9294 4.05753 15.9294C4.7669 15.9294 5.34003 16.5056 5.34003 17.2119ZM10.7275 3.2825C10.7863 1.63563 13.2338 1.63563 13.2925 3.2825C13.2925 3.30188 13.2894 3.32188 13.2894 3.33813C15.415 4.43813 16.8894 8.18188 16.8894 12.5081C16.8894 14.2887 16.6419 15.9944 16.1763 17.4756C16.1369 17.6219 15.9844 17.71 15.8375 17.6644C15.6907 17.6187 15.6132 17.4594 15.665 17.3163C16.1113 15.8875 16.3519 14.2338 16.3519 12.5081C16.3519 8.4325 14.9975 4.93 13.1488 3.87188C12.53 5.06625 10.7244 4.62688 10.7275 3.2825ZM11.8144 11.5994C11.3132 11.71 10.9938 12.2019 11.1013 12.7031C11.2088 13.2044 11.7038 13.5238 12.205 13.4163C13.4163 13.1556 13.0219 11.3388 11.8144 11.5994Z" fill="black"/>
</g>
<defs>
<clipPath id="clip0_144_38">
<rect width="20" height="20" fill="white" transform="translate(2 2)"/>
</clipPath>
</defs>
</svg>
