<svg width="24" height="24" viewBox="0 0 24 24" fill="none" xmlns="http://www.w3.org/2000/svg">
<path fill-rule="evenodd" clip-rule="evenodd" d="M22 12C22 15.866 17.5228 19 12 19C6.47715 19 2 15.866 2 12C2 8.13401 6.47715 5 12 5C17.5228 5 22 8.13401 22 12ZM18 12C18 14.7614 15.3137 17 12 17C8.68629 17 6 14.7614 6 12C6 9.23858 8.68629 7 12 7C15.3137 7 18 9.23858 18 12ZM12 16C14.2091 16 16 14.2091 16 12C16 9.79086 14.2091 8 12 8C9.79086 8 8 9.79086 8 12C8 14.2091 9.79086 16 12 16Z" fill="black"/>
</svg>
