<svg width="24" height="24" viewBox="0 0 24 24" fill="none" xmlns="http://www.w3.org/2000/svg">
<path fill-rule="evenodd" clip-rule="evenodd" d="M13.375 22C18.2472 21.3268 22 17.1273 22 12.0471C22 6.49824 17.5228 2 12 2C6.47715 2 2 6.49824 2 12.0471C2 16.4231 4.7845 20.1457 8.67045 21.5238V12.6408H7V9.21564H8.67045V8.83888C8.67045 7.75425 8.86364 6.85515 9.25 6.14157C9.63636 5.428 10.1818 4.89425 10.8864 4.54032C11.5909 4.18639 12.4205 4.00942 13.375 4.00942C13.9716 4.00942 14.5511 4.05509 15.1136 4.14643C15.6818 4.23776 16.1023 4.31768 16.375 4.38619L15.6932 7.77708C15.5227 7.72571 15.3239 7.68574 15.0966 7.6572C14.8693 7.62295 14.6705 7.60582 14.5 7.60582C14.0568 7.60582 13.7585 7.70002 13.6051 7.8884C13.4517 8.07678 13.375 8.32511 13.375 8.63337V9.21564H15.7614V12.6408H13.375V22Z" fill="black"/>
</svg>
