<svg width="24" height="24" viewBox="0 0 24 24" fill="none" xmlns="http://www.w3.org/2000/svg">
<path d="M15.4109 8.10448V11.4627H7V8.10448H15.4109ZM8.60364 21V7.73507C8.60364 6.67164 8.78909 5.79011 9.16 5.09049C9.53091 4.39086 10.0545 3.86754 10.7309 3.52052C11.4073 3.17351 12.2036 3 13.12 3C13.6927 3 14.2491 3.04478 14.7891 3.13433C15.3345 3.22388 15.7382 3.30224 16 3.3694L15.3455 6.69403C15.1818 6.64366 14.9909 6.60448 14.7727 6.57649C14.5545 6.54291 14.3636 6.52612 14.2 6.52612C13.7745 6.52612 13.4882 6.61847 13.3409 6.80317C13.1936 6.98787 13.12 7.23134 13.12 7.53358V21H8.60364Z" fill="black"/>
</svg>
