<svg width="24" height="24" viewBox="0 0 24 24" fill="none" xmlns="http://www.w3.org/2000/svg">
<path d="M14.0005 19.3084C13.3386 19.9695 12.6764 20.631 12.0168 21.2926L2.70756 12.0053L12.0077 2.70721L20.7939 11.5004C20.5528 11.5005 20.3117 11.5006 20.0707 11.5008C18.8515 11.5015 17.634 11.5023 16.4156 11.5003C15.5691 10.6447 14.7161 9.79328 13.8645 8.94326C13.3626 8.44226 12.8612 7.94175 12.3619 7.44118L12.0084 7.08679L11.6544 7.44067C10.2509 8.84367 8.84813 10.2476 7.44609 11.6525L7.09334 12.006L7.44636 12.3592L11.6528 16.5677L12.5064 17.4218V16.2143V16.2061V16.1978V16.1896V16.1814V16.1731V16.1649V16.1567V16.1485V16.1402V16.132V16.1238V16.1155V16.1073V16.0991V16.0909V16.0826V16.0744V16.0662V16.0579V16.0497V16.0415V16.0333V16.025V16.0168V16.0086V16.0003V15.9921V15.9839V15.9757V15.9674V15.9592V15.951V15.9427V15.9345V15.9263V15.9181V15.9098V15.9016V15.8934V15.8851V15.8769V15.8687V15.8605V15.8522V15.844V15.8358V15.8275V15.8193V15.8111V15.8029V15.7946V15.7864V15.7782V15.7699V15.7617V15.7535V15.7453V15.737V15.7288V15.7206V15.7123V15.7041V15.6959V15.6877V15.6794V15.6712V15.663V15.6547V15.6465V15.6383V15.6301V15.6218V15.6136V15.6054V15.5971V15.5889V15.5807V15.5725V15.5642V15.556V15.5478V15.5395V15.5313V15.5231V15.5148V15.5066V15.4984V15.4902V15.4819V15.4737V15.4655V15.4572V15.449V15.4408V15.4326V15.4243V15.4161V15.4079V15.3996V15.3914V15.3832V15.3749V15.3667V15.3585V15.3503V15.342V15.3338V15.3256V15.3173V15.3091V15.3009V15.2927V15.2844V15.2762V15.268V15.2597V15.2515V15.2433V15.235V15.2268V15.2186V15.2104V15.2021V15.1939V15.1857V15.1774V15.1692V15.161V15.1528V15.1445V15.1363V15.1281V15.1198V15.1116V15.1034V15.0951V15.0869V15.0787V15.0705V15.0622V15.054V15.0458V15.0375V15.0293V15.0211V15.0128V15.0046V14.9964V14.9882V14.9799V14.9717V14.9635V14.9552V14.947V14.9388V14.9305V14.9223V14.9141V14.9059V14.8976V14.8894V14.8812V14.8729V14.8647V14.8565V14.8482V14.84V14.8318V14.8236V14.8153V14.8071V14.7989V14.7906V14.7824V14.7742V14.7659V14.7577V14.7495V14.7413V14.733V14.7248V14.7166V14.7083V14.7001V14.6919V14.6836V14.6754V14.6672V14.659V14.6507V14.6425V14.6343V14.626V14.6178V14.6096V14.6013V14.5931V14.5849V14.5767V14.5684V14.5602V14.552V14.5437V14.5355V14.5273V14.519V14.5108V14.5026V14.4943V14.4861V14.4779V14.4697V14.4614V14.4532V14.445V14.4367V14.4285V14.4203V14.412V14.4038V14.3956V14.3873V14.3791V14.3709V14.3627V14.3544V14.3462V14.338V14.3297V14.3215V14.3133V14.305V14.2968V14.2886V14.2803V14.2721V14.2639V14.2557V14.2474V14.2392V14.231V14.2227V14.2145V14.2063V14.198V14.1898V14.1816V14.1733V14.1651V14.1569V14.1487V14.1404V14.1322V14.124V14.1157V14.1075V14.0993V14.091V14.0828V14.0746V14.0663V14.0581V14.0499V14.0417V14.0334V14.0252V14.017V14.0087V14.0005V13.9923V13.984V13.9758V13.9676V13.9593V13.9511V13.9429V13.9346V13.9264V13.9182V13.91V13.9017V13.8935V13.8853V13.877V13.8688V13.8606V13.8523V13.8441V13.8359V13.8276V13.8194V13.8112V13.8029V13.7947V13.7865V13.7783V13.77V13.7618V13.7536V13.7453V13.7371V13.7289V13.7206V13.7124V13.7042V13.6959V13.6877V13.6795V13.6712V13.663V13.6548V13.6465V13.6383V13.6301V13.6219V13.6136V13.6054V13.5972V13.5889V13.5807V13.5725V13.5642V13.556V13.5478V13.5395V13.5313V13.5231V13.5148V13.5066V13.4984V13.4901V13.4819V13.4737V13.4654V13.4572V13.449V13.4408V13.4325V13.4243V13.4161V13.4078V13.3996V13.3914V13.3831V13.3749V13.3667V13.3584V13.3502V13.342V13.3337V13.3255V13.3173V13.309V13.3008V13.2926V13.2843V13.2761V13.2679V13.2596V13.2514V13.2432V13.235V13.2267V13.2185V13.2103V13.202V13.1938V13.1856V13.1773V13.1691V13.1609V13.1526V13.1444V13.1362V13.1279V13.1197V13.1115V13.1032V13.095V13.0868V13.0785V13.0703V13.0621V13.0538V13.0456V13.0374V13.0291V13.0209V13.0127V13.0044V12.9962V12.988V12.9797V12.9715V12.9633V12.955V12.9468V12.9386V12.9304V12.9221V12.9139V12.9057V12.8974V12.8892V12.881V12.8727V12.8645V12.8563V12.848V12.8398V12.8316V12.8233V12.8151V12.8069V12.7986V12.7904V12.7822V12.7739V12.7657V12.7575V12.7492V12.741V12.7328V12.7245V12.7163V12.7081V12.6998V12.6916V12.6834V12.6751V12.6669V12.6587V12.6504V12.6422V12.634V12.6257V12.6175V12.6093V12.601V12.5928V12.5846V12.5763V12.5681V12.5599V12.5516V12.5434V12.5352V12.5269V12.5187V12.5105V12.5022V12.5001C12.8057 12.5003 13.1052 12.5005 13.4048 12.5008C14.1767 12.5014 14.9492 12.5021 15.7214 12.501V12.5093V12.5206V12.5319V12.5432V12.5545V12.5658V12.5772V12.5885V12.5998V12.6111V12.6224V12.6337V12.6451V12.6564V12.6677V12.679V12.6903V12.7017V12.713V12.7243V12.7356V12.7469V12.7582V12.7696V12.7809V12.7922V12.8035V12.8148V12.8261V12.8375V12.8488V12.8601V12.8714V12.8827V12.894V12.9054V12.9167V12.928V12.9393V12.9506V12.9619V12.9733V12.9846V12.9959V13.0072V13.0185V13.0298V13.0412V13.0525V13.0638V13.0751V13.0864V13.0977V13.1091V13.1204V13.1317V13.143V13.1543V13.1656V13.177V13.1883V13.1996V13.2109V13.2222V13.2335V13.2449V13.2562V13.2675V13.2788V13.2901V13.3015V13.3128V13.3241V13.3354V13.3467V13.358V13.3694V13.3807V13.392V13.4033V13.4146V13.4259V13.4373V13.4486V13.4599V13.4712V13.4825V13.4938V13.5052V13.5165V13.5278V13.5391V13.5504V13.5617V13.5731V13.5844V13.5957V13.607V13.6183V13.6296V13.641V13.6523V13.6636V13.6749V13.6862V13.6975V13.7089V13.7202V13.7315V13.7428V13.7541V13.7654V13.7768V13.7881V13.7994V13.8107V13.822V13.8333V13.8447V13.856V13.8673V13.8786V13.8899V13.9012V13.9126V13.9239V13.9352V13.9465V13.9578V13.9692V13.9805V13.9918V14.0031V14.0144V14.0257V14.0371V14.0484V14.0597V14.071V14.0823V14.0936V14.105V14.1163V14.1276V14.1389V14.1502V14.1615V14.1729V14.1842V14.1955V14.2068V14.2181V14.2294V14.2408V14.2521V14.2634V14.2747V14.286V14.2973V14.3087V14.32V14.3313V14.3426V14.3539V14.3652V14.3766V14.3879V14.3992V14.4105V14.4218V14.4331V14.4445V14.4558V14.4671V14.4784V14.4897V14.501V14.5124V14.5237V14.535V14.5463V14.5576V14.569V14.5803V14.5916V14.6029V14.6142V14.6255V14.6369V14.6482V14.6595V14.6708V14.6821V14.6934V14.7048V14.7161V14.7274V14.7387V14.75V14.7613V14.7727V14.784V14.7953V14.8066V14.8179V14.8292V14.8406V14.8519V14.8632V14.8745V14.8858V14.8971V14.9085V14.9198V14.9311V14.9424V14.9537V14.965V14.9764V14.9877V14.999V15.0103V15.0216V15.0329V15.0443V15.0556V15.0669V15.0782V15.0895V15.1008V15.1122V15.1235V15.1348V15.1461V15.1574V15.1687V15.1801V15.1914V15.2027V15.214V15.2253V15.2367V15.248V15.2593V15.2706V15.2819V15.2932V15.3046V15.3159V15.3272V15.3385V15.3498V15.3611V15.3725V15.3838V15.3951V15.4064V15.4177V15.429V15.4404V15.4517V15.463V15.4743V15.4856V15.4969V15.5083V15.5196V15.5309V15.5422V15.5535V15.5648V15.5762V15.5875V15.5988V15.6101V15.6214V15.6327V15.6441V15.6554V15.6667V15.678V15.6893V15.7006V15.712V15.7233V15.7346V15.7459V15.7572V15.7685V15.7799V15.7912V15.8025V15.8138V15.8251V15.8365V15.8478V15.8591V15.8704V15.8817V15.893V15.9044V15.9157V15.927V15.9383V15.9496V15.9609V15.9723V15.9836V15.9949V16.0062V16.0175V16.0288V16.0402V16.0515V16.0628V16.0741V16.0854V16.0967V16.1081V16.1194V16.1307V16.142V16.1533V16.1646V16.176V16.1873V16.1986V16.2099V16.2212V16.2325V16.2439V16.2552V16.2665V16.2778V16.2891V16.3004V16.3118V16.3231V16.3344V16.3457V16.357V16.3683V16.3797V16.391V16.4023V16.4136V16.4249V16.4362V16.4476V16.4589V16.4702V16.4815V16.4928V16.5042V16.5155V16.5268V16.5381V16.5494V16.5607V16.5721V16.5834V16.5947V16.606V16.6173V16.6286V16.64V16.6513V16.6626V16.6739V16.6852V16.6965V16.7079V16.7192V16.7305V16.7418V16.7531V16.7644V16.7758V16.7871V16.7984V16.8097V16.821V16.8323V16.8437V16.855V16.8663V16.8776V16.8889V16.9002V16.9116V16.9229V16.9342V16.9455V16.9568V16.9681V16.9795V16.9908V17.0021V17.0134V17.0247V17.036V17.0474V17.0587V17.07V17.0813V17.0926V17.104V17.1153V17.1266V17.1379V17.1492V17.1605V17.1719V17.1832V17.1945V17.2058V17.2171V17.2284V17.2398V17.2511V17.2624V17.2737V17.285V17.2963V17.3077V17.319V17.3303V17.3416V17.3529V17.3642V17.3756V17.3869V17.3982V17.4095V17.4208V17.4321V17.4435V17.4548V17.4661V17.4774V17.4887V17.5V17.5114V17.5227V17.534V17.5453V17.5566V17.5679V17.5793V17.5875C15.1493 18.1608 14.575 18.7344 14.0005 19.3084Z" stroke="black"/>
</svg>
