<svg width="24" height="24" viewBox="0 0 24 24" fill="none" xmlns="http://www.w3.org/2000/svg">
<path fill-rule="evenodd" clip-rule="evenodd" d="M7.10932 12.8971C7.15382 12.9803 7.19979 13.0605 7.24699 13.1376C7.58386 13.6883 7.98357 14.0866 8.35841 14.3467C9.63306 15.2317 11.0759 15.6381 12.5747 15.6381C14.8321 15.6381 16.3016 15.2409 16.3016 15.2409L17.6304 11.199H17.6303L18.1002 9.7697C18.4398 8.73399 17.7741 8.64017 17.1218 8.64017H12.6749C11.9294 8.64017 11.3856 9.04455 11.3856 9.74119C11.3856 10.4626 11.9701 10.7629 12.5651 10.7629H14.659C14.967 10.7629 15.0103 10.8378 14.9115 11.1519C14.8886 11.2247 14.8342 11.3996 14.767 11.6157C14.5876 12.1928 14.3172 13.0648 14.3153 13.0709C13.0676 13.1915 11.0258 13.1557 9.97526 12.3138C9.95208 12.2953 9.92936 12.2763 9.90707 12.257C9.58987 11.982 9.36263 11.6313 9.22247 11.199H9.22203C9.108 10.8472 9.05169 10.4411 9.05169 9.97729C9.05169 6.72554 10.8107 6.49419 13.7688 6.49419H22L21.223 4H13.1539C8.67194 4 6.44165 5.59822 6.44165 9.97729C6.44165 11.2024 6.71865 12.1667 7.10932 12.8971ZM19.9466 17.9593C20.4006 17.5423 20.7765 17.074 21.1081 16.5666H17.6125C17.3149 16.7756 16.9704 16.9539 16.5613 17.0991C15.8796 17.3411 15.0183 17.4913 13.8959 17.5388C13.6394 17.5497 13.3693 17.5551 13.0846 17.5551C9.15739 17.5551 6.28317 16.1398 5.11129 13.3959C4.82509 12.7258 4.70155 12.0088 4.64847 11.1989H4.64754C4.60639 10.5705 4.60793 9.88571 4.60966 9.12228C4.61001 8.96533 4.61038 8.80505 4.61038 8.64126H2.00047L2.00023 8.99951C1.9983 10.9267 1.99675 12.4685 2.52366 13.8951C3.98987 17.8664 7.76556 20 12.8377 20C13.2596 20 13.6603 19.9896 14.0411 19.9694C16.9838 19.8129 18.7408 19.0668 19.9466 17.9593Z" fill="black"/>
</svg>
