<svg width="26" height="24" viewBox="0 0 26 24" fill="none" xmlns="http://www.w3.org/2000/svg">
<path fill-rule="evenodd" clip-rule="evenodd" d="M14.8523 2C9.14502 2 4.53125 6.58331 4.53125 12.2535C4.53125 16.786 7.48745 20.6226 11.5885 21.9805C12.1012 22.0826 12.289 21.7599 12.289 21.4885C12.289 21.2508 12.2721 20.436 12.2721 19.587C9.40107 20.1983 8.8032 18.3647 8.8032 18.3647C8.3418 17.1764 7.65815 16.871 7.65815 16.871C6.71845 16.2429 7.7266 16.2429 7.7266 16.2429C8.76897 16.3108 9.31593 17.2954 9.31593 17.2954C10.2385 18.857 11.7252 18.4158 12.3233 18.1441C12.4086 17.482 12.6822 17.0237 12.9727 16.7691C10.6828 16.5314 8.27356 15.6487 8.27356 11.7102C8.27356 10.5898 8.68341 9.67309 9.33283 8.96018C9.23037 8.7056 8.87143 7.65289 9.4355 6.24394C9.4355 6.24394 10.307 5.97228 12.2719 7.29644C13.1132 7.07199 13.9808 6.95782 14.8523 6.95685C15.7237 6.95685 16.6121 7.07581 17.4324 7.29644C19.3976 5.97228 20.2691 6.24394 20.2691 6.24394C20.8331 7.65289 20.474 8.7056 20.3715 8.96018C21.0381 9.67309 21.431 10.5898 21.431 11.7102C21.431 15.6487 19.0218 16.5143 16.7148 16.7691C17.0908 17.0916 17.4153 17.7026 17.4153 18.6703C17.4153 20.0453 17.3984 21.1489 17.3984 21.4883C17.3984 21.7599 17.5864 22.0826 18.099 21.9808C22.2 20.6224 25.1562 16.786 25.1562 12.2535C25.1731 6.58331 20.5424 2 14.8523 2Z" fill="black"/>
</svg>
