<svg width="24" height="24" viewBox="0 0 24 24" fill="none" xmlns="http://www.w3.org/2000/svg">
<path d="M3.21643 16.3701L2.71641 16.3664L2.71643 16.3722L3.21643 16.3701ZM11.9939 22L11.992 22.5H11.9939V22ZM12.0058 22V22.5L12.0077 22.5L12.0058 22ZM20.7767 15.6273L21.2767 15.6294V15.6272L20.7767 15.6273ZM20.208 5.66955L20.5841 5.34002C20.431 5.16526 20.1776 5.11903 19.9726 5.22845L20.208 5.66955ZM18.4292 6.76689L18.0665 7.11101C18.237 7.29079 18.5135 7.31853 18.7164 7.17621L18.4292 6.76689ZM17.5154 5.97037L17.1911 6.35108L17.1997 6.35802L17.5154 5.97037ZM16.5334 5.29324L16.0374 5.23043C16.0138 5.41688 16.0967 5.60082 16.2521 5.70657L16.5334 5.29324ZM16.6991 2.96746L17.199 2.97972C17.2036 2.79077 17.1013 2.61536 16.9346 2.52636L16.6991 2.96746ZM14.0339 2L14.1485 1.51332C13.9315 1.4622 13.7069 1.56092 13.5978 1.75534L14.0339 2ZM13.0445 4.04331L12.9572 4.53563C13.187 4.57637 13.4144 4.45274 13.5052 4.23774L13.0445 4.04331ZM12.0069 3.9552L12.0132 3.4552H12.0069V3.9552ZM11.9935 3.95469V3.45465L11.9872 3.45473L11.9935 3.95469ZM10.9554 4.04331L10.4947 4.23766C10.5854 4.4527 10.8128 4.57637 11.0426 4.53563L10.9554 4.04331ZM9.96591 2L10.4018 1.75504C10.2926 1.56078 10.0681 1.4622 9.85117 1.51334L9.96591 2ZM7.30115 2.96746L7.06572 2.52635C6.899 2.61534 6.79669 2.79072 6.8013 2.97965L7.30115 2.96746ZM7.46693 5.29324L7.74789 5.70683C7.90355 5.6011 7.98666 5.41692 7.96295 5.23025L7.46693 5.29324ZM6.48466 5.97037L6.80082 6.35786L6.80875 6.35111L6.48466 5.97037ZM5.57066 6.76689L5.28356 7.17625C5.4864 7.31851 5.76284 7.29077 5.93337 7.11104L5.57066 6.76689ZM3.79195 5.66955L4.02737 5.22844C3.82238 5.11903 3.56903 5.16527 3.41589 5.34003L3.79195 5.66955ZM2 8.1603L1.56266 7.91794C1.47723 8.0721 1.47928 8.25985 1.56804 8.41211L2 8.1603ZM3.21 10.0105L2.80786 10.3076C2.90213 10.4352 3.05136 10.5105 3.21 10.5105V10.0105ZM3.22195 10.0105L3.72195 10.0105C3.72195 9.73434 3.49809 9.51049 3.22195 9.51049V10.0105ZM3.25098 15.6288L3.30182 15.1314L3.30164 15.1313L3.25098 15.6288ZM6.49817 15.9607L6.54913 15.4633L6.54902 15.4633L6.49817 15.9607ZM6.81336 16.3041L6.31443 16.3368L6.31445 16.337L6.81336 16.3041ZM6.91353 17.8241L6.41461 17.857C6.43098 18.1054 6.62757 18.3039 6.87579 18.3227L6.91353 17.8241ZM9.74602 18.0385L9.70829 18.5371C9.97153 18.557 10.2049 18.3689 10.2413 18.1074L9.74602 18.0385ZM9.9411 16.6355L9.44587 16.5667L9.44587 16.5667L9.9411 16.6355ZM14.0589 16.6355L14.5541 16.5667L14.5541 16.5667L14.0589 16.6355ZM14.254 18.0385L13.7587 18.1074C13.7951 18.3689 14.0285 18.557 14.2917 18.5371L14.254 18.0385ZM17.0866 17.8241L17.1243 18.3227C17.3725 18.3039 17.5691 18.1054 17.5855 17.857L17.0866 17.8241ZM17.1866 16.3041L16.6877 16.2711L16.6877 16.2713L17.1866 16.3041ZM17.5018 15.9607L17.451 15.4633L17.4505 15.4633L17.5018 15.9607ZM20.7477 15.6288L20.6973 15.1313L20.6969 15.1314L20.7477 15.6288ZM20.7766 15.179L20.6214 14.7037C20.4157 14.7709 20.2766 14.9628 20.2766 15.1791L20.7766 15.179ZM20.7781 15.1786L20.9333 15.6539C21.1389 15.5867 21.2781 15.3949 21.2781 15.1786H20.7781ZM20.7781 10.0105V9.51049C20.5019 9.51049 20.2781 9.73435 20.2781 10.0105H20.7781ZM20.79 10.0105V10.5105C20.9486 10.5105 21.0979 10.4352 21.1921 10.3076L20.79 10.0105ZM22 8.1603L22.4319 8.41221C22.5207 8.25995 22.5228 8.07219 22.4374 7.91801L22 8.1603ZM16.4158 11.4837C15.8882 11.4837 15.5105 11.9286 15.5105 12.4138H16.5105C16.5105 12.4236 16.5065 12.4384 16.4931 12.4526C16.4792 12.4673 16.4519 12.4837 16.4158 12.4837V11.4837ZM15.5105 12.4138C15.5105 12.8993 15.8885 13.3436 16.4158 13.3436V12.3436C16.4517 12.3436 16.479 12.3599 16.493 12.3747C16.5064 12.3889 16.5105 12.4039 16.5105 12.4138H15.5105ZM16.4158 13.3436C16.9432 13.3436 17.3213 12.8993 17.3213 12.4138H16.3213C16.3213 12.4039 16.3253 12.3889 16.3388 12.3746C16.3528 12.3598 16.3801 12.3436 16.4158 12.3436V13.3436ZM17.3213 12.4138C17.3213 11.9286 16.9436 11.4837 16.4158 11.4837V12.4837C16.3799 12.4837 16.3526 12.4674 16.3387 12.4527C16.3253 12.4385 16.3213 12.4236 16.3213 12.4138H17.3213ZM2.72201 15.6235L2.71644 16.3664L3.71642 16.3739L3.72198 15.631L2.72201 15.6235ZM2.71643 16.3722C2.71783 16.7147 2.72178 17.0659 2.72178 17.1401H3.72178C3.72178 17.069 3.71774 16.6911 3.71643 16.3681L2.71643 16.3722ZM2.72178 17.1401C2.72178 19.0212 3.86422 20.376 5.55913 21.2355C7.24021 22.0879 9.51968 22.4908 11.992 22.5L11.9957 21.5C9.60786 21.4911 7.5013 21.0991 6.01138 20.3436C4.53529 19.5951 3.72178 18.529 3.72178 17.1401H2.72178ZM11.9939 22.5H12.0058V21.5H11.9939V22.5ZM12.0077 22.5C14.48 22.4908 16.7592 22.0879 18.44 21.2355C20.1347 20.376 21.2767 19.0212 21.2767 17.1401H20.2767C20.2767 18.5291 19.4634 19.5952 17.9877 20.3436C16.4981 21.0991 14.3918 21.4911 12.0039 21.5L12.0077 22.5ZM21.2767 17.1401C21.2767 17.064 21.2753 15.961 21.2767 15.6294L20.2768 15.6252C20.2753 15.9595 20.2767 17.0682 20.2767 17.1401H21.2767ZM19.9726 5.22845C19.3374 5.56751 18.722 5.95071 18.1421 6.35757L18.7164 7.17621C19.2663 6.79045 19.8472 6.42894 20.4435 6.11065L19.9726 5.22845ZM18.792 6.42278C18.481 6.09496 18.1277 5.82422 17.8312 5.58271L17.1997 6.35802C17.5286 6.62597 17.8122 6.84292 18.0665 7.11101L18.792 6.42278ZM17.8397 5.58974C17.5066 5.30601 17.0916 5.06829 16.8148 4.8799L16.2521 5.70657C16.6322 5.96529 16.9098 6.11127 17.1912 6.35099L17.8397 5.58974ZM17.0295 5.35605C17.1299 4.56333 17.1792 3.78578 17.199 2.97972L16.1993 2.9552C16.1801 3.73588 16.1326 4.4787 16.0374 5.23043L17.0295 5.35605ZM16.9346 2.52636C16.0383 2.04794 15.0909 1.73533 14.1485 1.51332L13.9192 2.48668C14.8051 2.69538 15.6652 2.98234 16.4637 3.40855L16.9346 2.52636ZM13.5978 1.75534C13.2217 2.42569 12.88 3.14738 12.5839 3.84887L13.5052 4.23774C13.7904 3.56205 14.1161 2.87526 14.4699 2.24466L13.5978 1.75534ZM13.1318 3.55098C12.7519 3.48363 12.3767 3.45981 12.0132 3.45524L12.0006 4.45516C12.3304 4.45931 12.6479 4.48078 12.9572 4.53563L13.1318 3.55098ZM12.0069 3.4552C12.0069 3.4552 12.0069 3.4552 12.0069 3.4552C12.0069 3.4552 12.0069 3.4552 12.0069 3.4552C12.0069 3.4552 12.0069 3.4552 12.0068 3.4552C12.0068 3.4552 12.0068 3.4552 12.0068 3.4552C12.0068 3.4552 12.0068 3.4552 12.0068 3.4552C12.0068 3.4552 12.0068 3.4552 12.0068 3.4552C12.0068 3.4552 12.0068 3.4552 12.0068 3.4552C12.0068 3.4552 12.0068 3.4552 12.0068 3.4552C12.0068 3.4552 12.0068 3.4552 12.0068 3.4552C12.0068 3.4552 12.0068 3.4552 12.0067 3.4552C12.0067 3.4552 12.0067 3.4552 12.0067 3.4552C12.0067 3.4552 12.0067 3.4552 12.0067 3.4552C12.0067 3.4552 12.0067 3.4552 12.0067 3.4552C12.0067 3.4552 12.0067 3.4552 12.0067 3.4552C12.0067 3.4552 12.0067 3.4552 12.0067 3.4552C12.0067 3.4552 12.0067 3.4552 12.0067 3.4552C12.0067 3.4552 12.0067 3.4552 12.0066 3.4552C12.0066 3.4552 12.0066 3.4552 12.0066 3.4552C12.0066 3.4552 12.0066 3.4552 12.0066 3.4552C12.0066 3.4552 12.0066 3.4552 12.0066 3.4552C12.0066 3.4552 12.0066 3.4552 12.0066 3.4552C12.0066 3.4552 12.0066 3.4552 12.0066 3.4552C12.0066 3.4552 12.0066 3.4552 12.0066 3.4552C12.0066 3.4552 12.0066 3.4552 12.0065 3.4552C12.0065 3.4552 12.0065 3.4552 12.0065 3.4552C12.0065 3.4552 12.0065 3.4552 12.0065 3.4552C12.0065 3.4552 12.0065 3.4552 12.0065 3.4552C12.0065 3.4552 12.0065 3.4552 12.0065 3.4552C12.0065 3.4552 12.0065 3.4552 12.0065 3.4552C12.0065 3.4552 12.0065 3.4552 12.0065 3.4552C12.0065 3.4552 12.0065 3.4552 12.0065 3.4552C12.0064 3.4552 12.0064 3.4552 12.0064 3.4552C12.0064 3.4552 12.0064 3.4552 12.0064 3.4552C12.0064 3.4552 12.0064 3.4552 12.0064 3.4552C12.0064 3.4552 12.0064 3.4552 12.0064 3.4552C12.0064 3.4552 12.0064 3.4552 12.0064 3.4552C12.0064 3.4552 12.0064 3.4552 12.0064 3.4552C12.0064 3.4552 12.0064 3.4552 12.0064 3.4552C12.0063 3.4552 12.0063 3.4552 12.0063 3.4552C12.0063 3.4552 12.0063 3.4552 12.0063 3.4552C12.0063 3.4552 12.0063 3.4552 12.0063 3.4552C12.0063 3.4552 12.0063 3.4552 12.0063 3.4552C12.0063 3.4552 12.0063 3.4552 12.0063 3.4552C12.0063 3.4552 12.0063 3.4552 12.0063 3.4552C12.0063 3.4552 12.0063 3.4552 12.0063 3.4552C12.0062 3.4552 12.0062 3.4552 12.0062 3.4552C12.0062 3.4552 12.0062 3.4552 12.0062 3.4552C12.0062 3.4552 12.0062 3.4552 12.0062 3.4552C12.0062 3.4552 12.0062 3.4552 12.0062 3.4552C12.0062 3.4552 12.0062 3.4552 12.0062 3.4552C12.0062 3.4552 12.0062 3.4552 12.0062 3.4552C12.0062 3.4552 12.0062 3.4552 12.0062 3.4552C12.0062 3.4552 12.0061 3.4552 12.0061 3.4552C12.0061 3.4552 12.0061 3.4552 12.0061 3.4552C12.0061 3.4552 12.0061 3.4552 12.0061 3.4552C12.0061 3.4552 12.0061 3.4552 12.0061 3.4552C12.0061 3.4552 12.0061 3.4552 12.0061 3.4552C12.0061 3.4552 12.0061 3.4552 12.0061 3.4552C12.0061 3.4552 12.0061 3.4552 12.0061 3.4552C12.0061 3.4552 12.006 3.4552 12.006 3.4552C12.006 3.4552 12.006 3.4552 12.006 3.4552C12.006 3.4552 12.006 3.4552 12.006 3.4552C12.006 3.4552 12.006 3.4552 12.006 3.4552C12.006 3.4552 12.006 3.4552 12.006 3.4552C12.006 3.4552 12.006 3.4552 12.006 3.4552C12.006 3.4552 12.006 3.4552 12.006 3.4552C12.006 3.4552 12.0059 3.4552 12.0059 3.4552C12.0059 3.4552 12.0059 3.4552 12.0059 3.4552C12.0059 3.4552 12.0059 3.4552 12.0059 3.4552C12.0059 3.4552 12.0059 3.4552 12.0059 3.4552C12.0059 3.4552 12.0059 3.4552 12.0059 3.4552C12.0059 3.4552 12.0059 3.4552 12.0059 3.4552C12.0059 3.4552 12.0059 3.4552 12.0059 3.4552C12.0059 3.4552 12.0059 3.4552 12.0058 3.4552C12.0058 3.4552 12.0058 3.4552 12.0058 3.4552C12.0058 3.4552 12.0058 3.4552 12.0058 3.4552C12.0058 3.4552 12.0058 3.4552 12.0058 3.4552C12.0058 3.4552 12.0058 3.4552 12.0058 3.4552C12.0058 3.4552 12.0058 3.4552 12.0058 3.4552C12.0058 3.4552 12.0058 3.4552 12.0058 3.4552C12.0058 3.4552 12.0058 3.4552 12.0057 3.4552C12.0057 3.4552 12.0057 3.4552 12.0057 3.4552C12.0057 3.4552 12.0057 3.4552 12.0057 3.4552C12.0057 3.4552 12.0057 3.4552 12.0057 3.4552C12.0057 3.4552 12.0057 3.4552 12.0057 3.4552C12.0057 3.4552 12.0057 3.4552 12.0057 3.4552C12.0057 3.4552 12.0057 3.4552 12.0057 3.4552C12.0057 3.4552 12.0057 3.4552 12.0057 3.4552C12.0056 3.4552 12.0056 3.4552 12.0056 3.4552C12.0056 3.4552 12.0056 3.4552 12.0056 3.4552C12.0056 3.4552 12.0056 3.4552 12.0056 3.4552C12.0056 3.4552 12.0056 3.4552 12.0056 3.4552C12.0056 3.4552 12.0056 3.4552 12.0056 3.4552C12.0056 3.4552 12.0056 3.4552 12.0056 3.4552C12.0056 3.4552 12.0056 3.4552 12.0056 3.4552C12.0055 3.4552 12.0055 3.4552 12.0055 3.4552C12.0055 3.4552 12.0055 3.4552 12.0055 3.4552C12.0055 3.4552 12.0055 3.4552 12.0055 3.4552C12.0055 3.4552 12.0055 3.4552 12.0055 3.4552C12.0055 3.4552 12.0055 3.4552 12.0055 3.4552C12.0055 3.4552 12.0055 3.4552 12.0055 3.4552C12.0055 3.4552 12.0055 3.4552 12.0055 3.4552C12.0055 3.4552 12.0054 3.4552 12.0054 3.4552C12.0054 3.4552 12.0054 3.4552 12.0054 3.4552C12.0054 3.4552 12.0054 3.4552 12.0054 3.4552C12.0054 3.4552 12.0054 3.4552 12.0054 3.4552C12.0054 3.4552 12.0054 3.4552 12.0054 3.4552C12.0054 3.4552 12.0054 3.4552 12.0054 3.4552C12.0054 3.4552 12.0054 3.4552 12.0054 3.4552C12.0054 3.4552 12.0054 3.4552 12.0053 3.4552C12.0053 3.4552 12.0053 3.4552 12.0053 3.4552C12.0053 3.4552 12.0053 3.4552 12.0053 3.4552C12.0053 3.4552 12.0053 3.4552 12.0053 3.4552C12.0053 3.4552 12.0053 3.4552 12.0053 3.4552C12.0053 3.4552 12.0053 3.4552 12.0053 3.4552C12.0053 3.4552 12.0053 3.4552 12.0053 3.4552C12.0053 3.4552 12.0053 3.4552 12.0052 3.4552C12.0052 3.4552 12.0052 3.4552 12.0052 3.4552C12.0052 3.4552 12.0052 3.4552 12.0052 3.4552C12.0052 3.4552 12.0052 3.4552 12.0052 3.4552C12.0052 3.4552 12.0052 3.4552 12.0052 3.4552C12.0052 3.4552 12.0052 3.4552 12.0052 3.4552C12.0052 3.4552 12.0052 3.4552 12.0052 3.4552C12.0052 3.4552 12.0052 3.4552 12.0052 3.4552C12.0051 3.4552 12.0051 3.4552 12.0051 3.4552C12.0051 3.4552 12.0051 3.4552 12.0051 3.4552C12.0051 3.4552 12.0051 3.4552 12.0051 3.4552C12.0051 3.4552 12.0051 3.4552 12.0051 3.4552C12.0051 3.4552 12.0051 3.4552 12.0051 3.4552C12.0051 3.4552 12.0051 3.4552 12.0051 3.4552C12.0051 3.4552 12.0051 3.4552 12.0051 3.4552C12.0051 3.4552 12.005 3.4552 12.005 3.4552C12.005 3.4552 12.005 3.4552 12.005 3.4552C12.005 3.4552 12.005 3.4552 12.005 3.4552C12.005 3.4552 12.005 3.4552 12.005 3.4552C12.005 3.4552 12.005 3.4552 12.005 3.4552C12.005 3.4552 12.005 3.4552 12.005 3.4552C12.005 3.4552 12.005 3.4552 12.005 3.4552C12.005 3.4552 12.005 3.4552 12.0049 3.4552C12.0049 3.4552 12.0049 3.4552 12.0049 3.4552C12.0049 3.4552 12.0049 3.4552 12.0049 3.4552C12.0049 3.4552 12.0049 3.4552 12.0049 3.4552C12.0049 3.4552 12.0049 3.4552 12.0049 3.4552C12.0049 3.4552 12.0049 3.4552 12.0049 3.4552C12.0049 3.4552 12.0049 3.4552 12.0049 3.4552C12.0049 3.4552 12.0049 3.4552 12.0049 3.4552C12.0048 3.4552 12.0048 3.4552 12.0048 3.4552C12.0048 3.4552 12.0048 3.4552 12.0048 3.4552C12.0048 3.4552 12.0048 3.4552 12.0048 3.4552C12.0048 3.4552 12.0048 3.4552 12.0048 3.4552C12.0048 3.4552 12.0048 3.4552 12.0048 3.4552C12.0048 3.4552 12.0048 3.4552 12.0048 3.4552C12.0048 3.4552 12.0048 3.4552 12.0048 3.4552C12.0048 3.4552 12.0047 3.4552 12.0047 3.4552C12.0047 3.4552 12.0047 3.4552 12.0047 3.4552C12.0047 3.4552 12.0047 3.4552 12.0047 3.4552C12.0047 3.4552 12.0047 3.4552 12.0047 3.4552C12.0047 3.4552 12.0047 3.4552 12.0047 3.4552C12.0047 3.4552 12.0047 3.4552 12.0047 3.4552C12.0047 3.4552 12.0047 3.4552 12.0047 3.4552C12.0047 3.4552 12.0047 3.4552 12.0046 3.4552C12.0046 3.4552 12.0046 3.4552 12.0046 3.4552C12.0046 3.4552 12.0046 3.4552 12.0046 3.4552C12.0046 3.4552 12.0046 3.4552 12.0046 3.4552C12.0046 3.4552 12.0046 3.4552 12.0046 3.4552C12.0046 3.4552 12.0046 3.4552 12.0046 3.4552C12.0046 3.4552 12.0046 3.4552 12.0046 3.4552C12.0046 3.4552 12.0046 3.4552 12.0046 3.4552C12.0045 3.4552 12.0045 3.4552 12.0045 3.4552C12.0045 3.4552 12.0045 3.4552 12.0045 3.4552C12.0045 3.4552 12.0045 3.4552 12.0045 3.4552C12.0045 3.4552 12.0045 3.4552 12.0045 3.4552C12.0045 3.4552 12.0045 3.4552 12.0045 3.4552C12.0045 3.4552 12.0045 3.4552 12.0045 3.4552C12.0045 3.4552 12.0045 3.4552 12.0045 3.4552C12.0045 3.4552 12.0044 3.4552 12.0044 3.4552C12.0044 3.4552 12.0044 3.4552 12.0044 3.4552C12.0044 3.4552 12.0044 3.4552 12.0044 3.4552C12.0044 3.4552 12.0044 3.4552 12.0044 3.4552C12.0044 3.4552 12.0044 3.4552 12.0044 3.4552C12.0044 3.4552 12.0044 3.4552 12.0044 3.4552C12.0044 3.4552 12.0044 3.4552 12.0044 3.4552C12.0044 3.4552 12.0044 3.4552 12.0043 3.4552C12.0043 3.4552 12.0043 3.4552 12.0043 3.4552C12.0043 3.4552 12.0043 3.4552 12.0043 3.4552C12.0043 3.4552 12.0043 3.4552 12.0043 3.4552C12.0043 3.4552 12.0043 3.4552 12.0043 3.4552C12.0043 3.4552 12.0043 3.4552 12.0043 3.4552C12.0043 3.4552 12.0043 3.4552 12.0043 3.4552C12.0043 3.4552 12.0043 3.4552 12.0043 3.4552C12.0042 3.4552 12.0042 3.4552 12.0042 3.4552C12.0042 3.4552 12.0042 3.4552 12.0042 3.4552C12.0042 3.4552 12.0042 3.4552 12.0042 3.4552C12.0042 3.4552 12.0042 3.4552 12.0042 3.4552C12.0042 3.4552 12.0042 3.4552 12.0042 3.4552C12.0042 3.4552 12.0042 3.4552 12.0042 3.4552C12.0042 3.4552 12.0042 3.4552 12.0042 3.4552C12.0042 3.4552 12.0041 3.4552 12.0041 3.4552C12.0041 3.4552 12.0041 3.4552 12.0041 3.4552C12.0041 3.4552 12.0041 3.4552 12.0041 3.4552C12.0041 3.4552 12.0041 3.4552 12.0041 3.4552C12.0041 3.4552 12.0041 3.4552 12.0041 3.4552C12.0041 3.4552 12.0041 3.4552 12.0041 3.4552C12.0041 3.4552 12.0041 3.4552 12.0041 3.4552C12.0041 3.4552 12.0041 3.4552 12.0041 3.4552C12.004 3.4552 12.004 3.4552 12.004 3.4552C12.004 3.4552 12.004 3.4552 12.004 3.4552C12.004 3.4552 12.004 3.4552 12.004 3.4552C12.004 3.4552 12.004 3.4552 12.004 3.4552C12.004 3.4552 12.004 3.4552 12.004 3.4552C12.004 3.4552 12.004 3.4552 12.004 3.4552C12.004 3.4552 12.004 3.4552 12.004 3.4552C12.004 3.4552 12.0039 3.4552 12.0039 3.4552C12.0039 3.4552 12.0039 3.4552 12.0039 3.4552C12.0039 3.4552 12.0039 3.4552 12.0039 3.4552C12.0039 3.4552 12.0039 3.4552 12.0039 3.4552C12.0039 3.4552 12.0039 3.4552 12.0039 3.4552C12.0039 3.4552 12.0039 3.4552 12.0039 3.4552C12.0039 3.4552 12.0039 3.4552 12.0039 3.4552C12.0039 3.4552 12.0039 3.4552 12.0038 3.4552C12.0038 3.4552 12.0038 3.4552 12.0038 3.4552C12.0038 3.4552 12.0038 3.4552 12.0038 3.4552C12.0038 3.4552 12.0038 3.4552 12.0038 3.4552C12.0038 3.4552 12.0038 3.4552 12.0038 3.4552C12.0038 3.4552 12.0038 3.4552 12.0038 3.4552C12.0038 3.4552 12.0038 3.4552 12.0038 3.4552C12.0038 3.4552 12.0038 3.4552 12.0038 3.4552C12.0038 3.4552 12.0037 3.4552 12.0037 3.4552C12.0037 3.4552 12.0037 3.4552 12.0037 3.4552C12.0037 3.4552 12.0037 3.4552 12.0037 3.4552C12.0037 3.4552 12.0037 3.4552 12.0037 3.4552C12.0037 3.4552 12.0037 3.4552 12.0037 3.4552C12.0037 3.4552 12.0037 3.4552 12.0037 3.4552C12.0037 3.4552 12.0037 3.4552 12.0037 3.4552C12.0037 3.4552 12.0037 3.4552 12.0036 3.4552C12.0036 3.4552 12.0036 3.4552 12.0036 3.4552C12.0036 3.4552 12.0036 3.4552 12.0036 3.4552C12.0036 3.4552 12.0036 3.4552 12.0036 3.4552C12.0036 3.4552 12.0036 3.4552 12.0036 3.4552C12.0036 3.4552 12.0036 3.4552 12.0036 3.4552C12.0036 3.4552 12.0036 3.4552 12.0036 3.4552C12.0036 3.4552 12.0036 3.4552 12.0036 3.4552C12.0036 3.4552 12.0035 3.4552 12.0035 3.4552C12.0035 3.4552 12.0035 3.4552 12.0035 3.4552C12.0035 3.4552 12.0035 3.4552 12.0035 3.4552C12.0035 3.4552 12.0035 3.4552 12.0035 3.4552C12.0035 3.4552 12.0035 3.4552 12.0035 3.4552C12.0035 3.4552 12.0035 3.4552 12.0035 3.4552C12.0035 3.4552 12.0035 3.4552 12.0035 3.4552C12.0035 3.4552 12.0035 3.4552 12.0035 3.4552C12.0034 3.4552 12.0034 3.4552 12.0034 3.4552C12.0034 3.4552 12.0034 3.4552 12.0034 3.4552C12.0034 3.4552 12.0034 3.4552 12.0034 3.4552C12.0034 3.4552 12.0034 3.4552 12.0034 3.4552C12.0034 3.4552 12.0034 3.4552 12.0034 3.4552C12.0034 3.4552 12.0034 3.4552 12.0034 3.4552C12.0034 3.4552 12.0034 3.4552 12.0034 3.4552C12.0034 3.4552 12.0033 3.4552 12.0033 3.4552C12.0033 3.4552 12.0033 3.4552 12.0033 3.4552C12.0033 3.4552 12.0033 3.4552 12.0033 3.4552C12.0033 3.4552 12.0033 3.4552 12.0033 3.4552C12.0033 3.4552 12.0033 3.4552 12.0033 3.4552C12.0033 3.4552 12.0033 3.4552 12.0033 3.4552C12.0033 3.4552 12.0033 3.4552 12.0033 3.4552C12.0033 3.4552 12.0033 3.4552 12.0033 3.4552C12.0032 3.4552 12.0032 3.4552 12.0032 3.4552C12.0032 3.4552 12.0032 3.4552 12.0032 3.4552C12.0032 3.4552 12.0032 3.4552 12.0032 3.4552C12.0032 3.4552 12.0032 3.4552 12.0032 3.4552C12.0032 3.4552 12.0032 3.4552 12.0032 3.4552C12.0032 3.4552 12.0032 3.4552 12.0032 3.4552C12.0032 3.4552 12.0032 3.4552 12.0032 3.4552C12.0032 3.4552 12.0032 3.4552 12.0031 3.4552C12.0031 3.4552 12.0031 3.4552 12.0031 3.4552C12.0031 3.4552 12.0031 3.4552 12.0031 3.4552C12.0031 3.4552 12.0031 3.4552 12.0031 3.4552C12.0031 3.4552 12.0031 3.4552 12.0031 3.4552C12.0031 3.4552 12.0031 3.4552 12.0031 3.4552C12.0031 3.4552 12.0031 3.4552 12.0031 3.4552C12.0031 3.4552 12.0031 3.4552 12.0031 3.4552C12.0031 3.4552 12.003 3.4552 12.003 3.4552C12.003 3.4552 12.003 3.4552 12.003 3.4552C12.003 3.4552 12.003 3.4552 12.003 3.4552C12.003 3.4552 12.003 3.4552 12.003 3.4552C12.003 3.4552 12.003 3.4552 12.003 3.4552C12.003 3.4552 12.003 3.4552 12.003 3.4552C12.003 3.4552 12.003 3.4552 12.003 3.4552C12.003 3.4552 12.003 3.4552 12.0029 3.4552C12.0029 3.4552 12.0029 3.4552 12.0029 3.4552C12.0029 3.4552 12.0029 3.4552 12.0029 3.4552C12.0029 3.4552 12.0029 3.4552 12.0029 3.4552C12.0029 3.4552 12.0029 3.4552 12.0029 3.4552C12.0029 3.4552 12.0029 3.4552 12.0029 3.4552C12.0029 3.4552 12.0029 3.4552 12.0029 3.4552C12.0029 3.4552 12.0029 3.4552 12.0029 3.4552C12.0029 3.4552 12.0028 3.4552 12.0028 3.4552C12.0028 3.4552 12.0028 3.4552 12.0028 3.4552C12.0028 3.4552 12.0028 3.4552 12.0028 3.4552C12.0028 3.4552 12.0028 3.4552 12.0028 3.4552C12.0028 3.4552 12.0028 3.4552 12.0028 3.4552C12.0028 3.4552 12.0028 3.4552 12.0028 3.4552C12.0028 3.4552 12.0028 3.4552 12.0028 3.4552C12.0028 3.4552 12.0028 3.4552 12.0028 3.4552C12.0028 3.4552 12.0027 3.4552 12.0027 3.4552C12.0027 3.4552 12.0027 3.4552 12.0027 3.4552C12.0027 3.4552 12.0027 3.4552 12.0027 3.4552C12.0027 3.4552 12.0027 3.4552 12.0027 3.4552C12.0027 3.4552 12.0027 3.4552 12.0027 3.4552C12.0027 3.4552 12.0027 3.4552 12.0027 3.4552C12.0027 3.4552 12.0027 3.4552 12.0027 3.4552C12.0027 3.4552 12.0027 3.4552 12.0027 3.4552C12.0026 3.4552 12.0026 3.4552 12.0026 3.4552C12.0026 3.4552 12.0026 3.4552 12.0026 3.4552C12.0026 3.4552 12.0026 3.4552 12.0026 3.4552C12.0026 3.4552 12.0026 3.4552 12.0026 3.4552C12.0026 3.4552 12.0026 3.4552 12.0026 3.4552C12.0026 3.4552 12.0026 3.4552 12.0026 3.4552C12.0026 3.4552 12.0026 3.4552 12.0026 3.4552C12.0026 3.4552 12.0026 3.4552 12.0025 3.4552C12.0025 3.4552 12.0025 3.4552 12.0025 3.4552C12.0025 3.4552 12.0025 3.4552 12.0025 3.4552C12.0025 3.4552 12.0025 3.4552 12.0025 3.4552C12.0025 3.4552 12.0025 3.4552 12.0025 3.4552C12.0025 3.4552 12.0025 3.4552 12.0025 3.4552C12.0025 3.4552 12.0025 3.4552 12.0025 3.4552C12.0025 3.4552 12.0025 3.4552 12.0025 3.4552C12.0025 3.4552 12.0024 3.4552 12.0024 3.4552C12.0024 3.4552 12.0024 3.4552 12.0024 3.4552C12.0024 3.4552 12.0024 3.4552 12.0024 3.4552C12.0024 3.4552 12.0024 3.4552 12.0024 3.4552C12.0024 3.4552 12.0024 3.4552 12.0024 3.4552C12.0024 3.4552 12.0024 3.4552 12.0024 3.4552C12.0024 3.4552 12.0024 3.4552 12.0024 3.4552C12.0024 3.4552 12.0024 3.4552 12.0024 3.4552C12.0023 3.4552 12.0023 3.4552 12.0023 3.4552C12.0023 3.4552 12.0023 3.4552 12.0023 3.4552C12.0023 3.4552 12.0023 3.4552 12.0023 3.4552C12.0023 3.4552 12.0023 3.4552 12.0023 3.4552C12.0023 3.4552 12.0023 3.4552 12.0023 3.4552C12.0023 3.4552 12.0023 3.4552 12.0023 3.4552C12.0023 3.4552 12.0023 3.4552 12.0023 3.4552C12.0023 3.4552 12.0023 3.4552 12.0022 3.4552C12.0022 3.4552 12.0022 3.4552 12.0022 3.4552C12.0022 3.4552 12.0022 3.4552 12.0022 3.4552C12.0022 3.4552 12.0022 3.4552 12.0022 3.4552C12.0022 3.4552 12.0022 3.4552 12.0022 3.4552C12.0022 3.4552 12.0022 3.4552 12.0022 3.4552C12.0022 3.4552 12.0022 3.4552 12.0022 3.4552C12.0022 3.4552 12.0022 3.4552 12.0022 3.4552C12.0022 3.4552 12.0022 3.4552 12.0021 3.4552C12.0021 3.4552 12.0021 3.4552 12.0021 3.4552C12.0021 3.4552 12.0021 3.4552 12.0021 3.4552C12.0021 3.4552 12.0021 3.4552 12.0021 3.4552C12.0021 3.4552 12.0021 3.4552 12.0021 3.4552C12.0021 3.4552 12.0021 3.4552 12.0021 3.4552C12.0021 3.4552 12.0021 3.4552 12.0021 3.4552C12.0021 3.4552 12.0021 3.4552 12.0021 3.4552C12.0021 3.4552 12.002 3.4552 12.002 3.4552C12.002 3.4552 12.002 3.4552 12.002 3.4552C12.002 3.4552 12.002 3.4552 12.002 3.4552C12.002 3.4552 12.002 3.4552 12.002 3.4552C12.002 3.4552 12.002 3.4552 12.002 3.4552C12.002 3.4552 12.002 3.4552 12.002 3.4552C12.002 3.4552 12.002 3.4552 12.002 3.4552C12.002 3.4552 12.002 3.4552 12.002 3.4552C12.002 3.4552 12.0019 3.4552 12.0019 3.4552C12.0019 3.4552 12.0019 3.4552 12.0019 3.4552C12.0019 3.4552 12.0019 3.4552 12.0019 3.4552C12.0019 3.4552 12.0019 3.4552 12.0019 3.4552C12.0019 3.4552 12.0019 3.4552 12.0019 3.4552C12.0019 3.4552 12.0019 3.4552 12.0019 3.4552C12.0019 3.4552 12.0019 3.4552 12.0019 3.4552C12.0019 3.4552 12.0019 3.4552 12.0019 3.4552C12.0019 3.4552 12.0018 3.4552 12.0018 3.4552C12.0018 3.4552 12.0018 3.4552 12.0018 3.4552C12.0018 3.4552 12.0018 3.4552 12.0018 3.4552C12.0018 3.4552 12.0018 3.4552 12.0018 3.4552C12.0018 3.4552 12.0018 3.4552 12.0018 3.4552C12.0018 3.4552 12.0018 3.4552 12.0018 3.4552C12.0018 3.4552 12.0018 3.4552 12.0018 3.4552C12.0018 3.4552 12.0018 3.4552 12.0018 3.4552C12.0017 3.4552 12.0017 3.4552 12.0017 3.4552C12.0017 3.4552 12.0017 3.4552 12.0017 3.4552C12.0017 3.4552 12.0017 3.4552 12.0017 3.4552C12.0017 3.4552 12.0017 3.4552 12.0017 3.4552C12.0017 3.4552 12.0017 3.4552 12.0017 3.4552C12.0017 3.4552 12.0017 3.4552 12.0017 3.4552C12.0017 3.4552 12.0017 3.4552 12.0017 3.4552C12.0017 3.4552 12.0017 3.4552 12.0017 3.4552C12.0016 3.4552 12.0016 3.4552 12.0016 3.4552C12.0016 3.4552 12.0016 3.4552 12.0016 3.4552C12.0016 3.4552 12.0016 3.4552 12.0016 3.4552C12.0016 3.4552 12.0016 3.4552 12.0016 3.4552C12.0016 3.4552 12.0016 3.4552 12.0016 3.4552C12.0016 3.4552 12.0016 3.4552 12.0016 3.4552C12.0016 3.4552 12.0016 3.4552 12.0016 3.4552C12.0016 3.4552 12.0016 3.4552 12.0016 3.4552C12.0015 3.4552 12.0015 3.4552 12.0015 3.4552C12.0015 3.4552 12.0015 3.4552 12.0015 3.4552C12.0015 3.4552 12.0015 3.4552 12.0015 3.4552C12.0015 3.4552 12.0015 3.4552 12.0015 3.4552C12.0015 3.4552 12.0015 3.4552 12.0015 3.4552C12.0015 3.4552 12.0015 3.4552 12.0015 3.4552C12.0015 3.4552 12.0015 3.4552 12.0015 3.4552C12.0015 3.4552 12.0015 3.4552 12.0015 3.4552C12.0014 3.4552 12.0014 3.4552 12.0014 3.4552C12.0014 3.4552 12.0014 3.4552 12.0014 3.4552C12.0014 3.4552 12.0014 3.4552 12.0014 3.4552C12.0014 3.4552 12.0014 3.4552 12.0014 3.4552C12.0014 3.4552 12.0014 3.4552 12.0014 3.4552C12.0014 3.4552 12.0014 3.4552 12.0014 3.4552C12.0014 3.4552 12.0014 3.4552 12.0014 3.4552C12.0014 3.4552 12.0014 3.4552 12.0013 3.4552C12.0013 3.4552 12.0013 3.4552 12.0013 3.4552C12.0013 3.4552 12.0013 3.4552 12.0013 3.4552C12.0013 3.4552 12.0013 3.4552 12.0013 3.4552C12.0013 3.4552 12.0013 3.4552 12.0013 3.4552C12.0013 3.4552 12.0013 3.4552 12.0013 3.4552C12.0013 3.4552 12.0013 3.4552 12.0013 3.4552C12.0013 3.4552 12.0013 3.4552 12.0013 3.4552C12.0013 3.4552 12.0013 3.4552 12.0013 3.4552C12.0012 3.4552 12.0012 3.4552 12.0012 3.4552C12.0012 3.4552 12.0012 3.4552 12.0012 3.4552C12.0012 3.4552 12.0012 3.4552 12.0012 3.4552C12.0012 3.4552 12.0012 3.4552 12.0012 3.4552C12.0012 3.4552 12.0012 3.4552 12.0012 3.4552C12.0012 3.4552 12.0012 3.4552 12.0012 3.4552C12.0012 3.4552 12.0012 3.4552 12.0012 3.4552C12.0012 3.4552 12.0012 3.4552 12.0012 3.4552C12.0011 3.4552 12.0011 3.4552 12.0011 3.4552C12.0011 3.4552 12.0011 3.4552 12.0011 3.4552C12.0011 3.4552 12.0011 3.4552 12.0011 3.4552C12.0011 3.4552 12.0011 3.4552 12.0011 3.4552C12.0011 3.4552 12.0011 3.4552 12.0011 3.4552C12.0011 3.4552 12.0011 3.4552 12.0011 3.4552C12.0011 3.4552 12.0011 3.4552 12.0011 3.4552C12.0011 3.4552 12.0011 3.4552 12.0011 3.4552C12.001 3.4552 12.001 3.4552 12.001 3.4552C12.001 3.4552 12.001 3.4552 12.001 3.4552C12.001 3.4552 12.001 3.4552 12.001 3.4552C12.001 3.4552 12.001 3.4552 12.001 3.4552C12.001 3.4552 12.001 3.4552 12.001 3.4552C12.001 3.4552 12.001 3.4552 12.001 3.4552C12.001 3.4552 12.001 3.4552 12.001 3.4552C12.001 3.4552 12.001 3.4552 12.001 3.4552C12.0009 3.4552 12.0009 3.4552 12.0009 3.4552C12.0009 3.4552 12.0009 3.4552 12.0009 3.4552C12.0009 3.4552 12.0009 3.4552 12.0009 3.4552C12.0009 3.4552 12.0009 3.4552 12.0009 3.4552C12.0009 3.4552 12.0009 3.4552 12.0009 3.4552C12.0009 3.4552 12.0009 3.4552 12.0009 3.4552C12.0009 3.4552 12.0009 3.4552 12.0009 3.4552C12.0009 3.4552 12.0009 3.4552 12.0009 3.4552C12.0008 3.4552 12.0008 3.4552 12.0008 3.4552C12.0008 3.4552 12.0008 3.4552 12.0008 3.4552C12.0008 3.4552 12.0008 3.4552 12.0008 3.4552C12.0008 3.4552 12.0008 3.4552 12.0008 3.4552C12.0008 3.4552 12.0008 3.4552 12.0008 3.4552C12.0008 3.4552 12.0008 3.4552 12.0008 3.4552C12.0008 3.4552 12.0008 3.4552 12.0008 3.4552C12.0008 3.4552 12.0008 3.4552 12.0008 3.4552C12.0008 3.4552 12.0007 3.4552 12.0007 3.4552C12.0007 3.4552 12.0007 3.4552 12.0007 3.4552C12.0007 3.4552 12.0007 3.4552 12.0007 3.4552C12.0007 3.4552 12.0007 3.4552 12.0007 3.4552C12.0007 3.4552 12.0007 3.4552 12.0007 3.4552C12.0007 3.4552 12.0007 3.4552 12.0007 3.4552C12.0007 3.4552 12.0007 3.4552 12.0007 3.4552C12.0007 3.4552 12.0007 3.4552 12.0007 3.4552C12.0007 3.4552 12.0006 3.4552 12.0006 3.4552C12.0006 3.4552 12.0006 3.4552 12.0006 3.4552C12.0006 3.4552 12.0006 3.4552 12.0006 3.4552C12.0006 3.4552 12.0006 3.4552 12.0006 3.4552C12.0006 3.4552 12.0006 3.4552 12.0006 3.4552C12.0006 3.4552 12.0006 3.4552 12.0006 3.4552C12.0006 3.4552 12.0006 3.4552 12.0006 3.4552C12.0006 3.4552 12.0006 3.4552 12.0006 3.4552C12.0006 3.4552 12.0006 3.4552 12.0005 3.4552C12.0005 3.4552 12.0005 3.4552 12.0005 3.4552C12.0005 3.4552 12.0005 3.4552 12.0005 3.4552C12.0005 3.4552 12.0005 3.4552 12.0005 3.4552C12.0005 3.4552 12.0005 3.4552 12.0005 3.4552C12.0005 3.4552 12.0005 3.4552 12.0005 3.4552C12.0005 3.4552 12.0005 3.4552 12.0005 3.4552C12.0005 3.4552 12.0005 3.4552 12.0005 3.4552C12.0005 3.4552 12.0005 3.4552 12.0004 3.4552C12.0004 3.4552 12.0004 3.4552 12.0004 3.4552C12.0004 3.4552 12.0004 3.4552 12.0004 3.4552C12.0004 3.4552 12.0004 3.4552 12.0004 3.4552C12.0004 3.4552 12.0004 3.4552 12.0004 3.4552C12.0004 3.4552 12.0004 3.4552 12.0004 3.4552C12.0004 3.4552 12.0004 3.4552 12.0004 3.4552C12.0004 3.4552 12.0004 3.4552 12.0004 3.4552C12.0004 3.4552 12.0004 3.4552 12.0004 3.4552C12.0003 3.4552 12.0003 3.4552 12.0003 3.4552C12.0003 3.4552 12.0003 3.4552 12.0003 3.4552C12.0003 3.4552 12.0003 3.4552 12.0003 3.4552C12.0003 3.4552 12.0003 3.4552 12.0003 3.4552C12.0003 3.4552 12.0003 3.4552 12.0003 3.4552C12.0003 3.4552 12.0003 3.4552 12.0003 3.4552C12.0003 3.4552 12.0003 3.4552 12.0003 3.4552C12.0003 3.4552 12.0003 3.4552 12.0003 3.4552C12.0003 3.4552 12.0002 3.4552 12.0002 3.4552C12.0002 3.4552 12.0002 3.4552 12.0002 3.4552C12.0002 3.4552 12.0002 3.4552 12.0002 3.4552C12.0002 3.4552 12.0002 3.4552 12.0002 3.4552C12.0002 3.4552 12.0002 3.4552 12.0002 3.4552C12.0002 3.4552 12.0002 3.4552 12.0002 3.4552C12.0002 3.4552 12.0002 3.4552 12.0002 3.4552C12.0002 3.4552 12.0002 3.4552 12.0002 3.4552C12.0002 3.4552 12.0002 3.4552 12.0001 3.4552C12.0001 3.4552 12.0001 3.4552 12.0001 3.4552V4.4552C12.0001 4.4552 12.0001 4.4552 12.0001 4.4552C12.0002 4.4552 12.0002 4.4552 12.0002 4.4552C12.0002 4.4552 12.0002 4.4552 12.0002 4.4552C12.0002 4.4552 12.0002 4.4552 12.0002 4.4552C12.0002 4.4552 12.0002 4.4552 12.0002 4.4552C12.0002 4.4552 12.0002 4.4552 12.0002 4.4552C12.0002 4.4552 12.0002 4.4552 12.0002 4.4552C12.0002 4.4552 12.0002 4.4552 12.0002 4.4552C12.0002 4.4552 12.0002 4.4552 12.0002 4.4552C12.0002 4.4552 12.0003 4.4552 12.0003 4.4552C12.0003 4.4552 12.0003 4.4552 12.0003 4.4552C12.0003 4.4552 12.0003 4.4552 12.0003 4.4552C12.0003 4.4552 12.0003 4.4552 12.0003 4.4552C12.0003 4.4552 12.0003 4.4552 12.0003 4.4552C12.0003 4.4552 12.0003 4.4552 12.0003 4.4552C12.0003 4.4552 12.0003 4.4552 12.0003 4.4552C12.0003 4.4552 12.0003 4.4552 12.0003 4.4552C12.0003 4.4552 12.0003 4.4552 12.0004 4.4552C12.0004 4.4552 12.0004 4.4552 12.0004 4.4552C12.0004 4.4552 12.0004 4.4552 12.0004 4.4552C12.0004 4.4552 12.0004 4.4552 12.0004 4.4552C12.0004 4.4552 12.0004 4.4552 12.0004 4.4552C12.0004 4.4552 12.0004 4.4552 12.0004 4.4552C12.0004 4.4552 12.0004 4.4552 12.0004 4.4552C12.0004 4.4552 12.0004 4.4552 12.0004 4.4552C12.0004 4.4552 12.0004 4.4552 12.0004 4.4552C12.0005 4.4552 12.0005 4.4552 12.0005 4.4552C12.0005 4.4552 12.0005 4.4552 12.0005 4.4552C12.0005 4.4552 12.0005 4.4552 12.0005 4.4552C12.0005 4.4552 12.0005 4.4552 12.0005 4.4552C12.0005 4.4552 12.0005 4.4552 12.0005 4.4552C12.0005 4.4552 12.0005 4.4552 12.0005 4.4552C12.0005 4.4552 12.0005 4.4552 12.0005 4.4552C12.0005 4.4552 12.0005 4.4552 12.0005 4.4552C12.0006 4.4552 12.0006 4.4552 12.0006 4.4552C12.0006 4.4552 12.0006 4.4552 12.0006 4.4552C12.0006 4.4552 12.0006 4.4552 12.0006 4.4552C12.0006 4.4552 12.0006 4.4552 12.0006 4.4552C12.0006 4.4552 12.0006 4.4552 12.0006 4.4552C12.0006 4.4552 12.0006 4.4552 12.0006 4.4552C12.0006 4.4552 12.0006 4.4552 12.0006 4.4552C12.0006 4.4552 12.0006 4.4552 12.0006 4.4552C12.0006 4.4552 12.0007 4.4552 12.0007 4.4552C12.0007 4.4552 12.0007 4.4552 12.0007 4.4552C12.0007 4.4552 12.0007 4.4552 12.0007 4.4552C12.0007 4.4552 12.0007 4.4552 12.0007 4.4552C12.0007 4.4552 12.0007 4.4552 12.0007 4.4552C12.0007 4.4552 12.0007 4.4552 12.0007 4.4552C12.0007 4.4552 12.0007 4.4552 12.0007 4.4552C12.0007 4.4552 12.0007 4.4552 12.0007 4.4552C12.0007 4.4552 12.0008 4.4552 12.0008 4.4552C12.0008 4.4552 12.0008 4.4552 12.0008 4.4552C12.0008 4.4552 12.0008 4.4552 12.0008 4.4552C12.0008 4.4552 12.0008 4.4552 12.0008 4.4552C12.0008 4.4552 12.0008 4.4552 12.0008 4.4552C12.0008 4.4552 12.0008 4.4552 12.0008 4.4552C12.0008 4.4552 12.0008 4.4552 12.0008 4.4552C12.0008 4.4552 12.0008 4.4552 12.0008 4.4552C12.0008 4.4552 12.0008 4.4552 12.0009 4.4552C12.0009 4.4552 12.0009 4.4552 12.0009 4.4552C12.0009 4.4552 12.0009 4.4552 12.0009 4.4552C12.0009 4.4552 12.0009 4.4552 12.0009 4.4552C12.0009 4.4552 12.0009 4.4552 12.0009 4.4552C12.0009 4.4552 12.0009 4.4552 12.0009 4.4552C12.0009 4.4552 12.0009 4.4552 12.0009 4.4552C12.0009 4.4552 12.0009 4.4552 12.0009 4.4552C12.0009 4.4552 12.0009 4.4552 12.001 4.4552C12.001 4.4552 12.001 4.4552 12.001 4.4552C12.001 4.4552 12.001 4.4552 12.001 4.4552C12.001 4.4552 12.001 4.4552 12.001 4.4552C12.001 4.4552 12.001 4.4552 12.001 4.4552C12.001 4.4552 12.001 4.4552 12.001 4.4552C12.001 4.4552 12.001 4.4552 12.001 4.4552C12.001 4.4552 12.001 4.4552 12.001 4.4552C12.001 4.4552 12.001 4.4552 12.0011 4.4552C12.0011 4.4552 12.0011 4.4552 12.0011 4.4552C12.0011 4.4552 12.0011 4.4552 12.0011 4.4552C12.0011 4.4552 12.0011 4.4552 12.0011 4.4552C12.0011 4.4552 12.0011 4.4552 12.0011 4.4552C12.0011 4.4552 12.0011 4.4552 12.0011 4.4552C12.0011 4.4552 12.0011 4.4552 12.0011 4.4552C12.0011 4.4552 12.0011 4.4552 12.0011 4.4552C12.0011 4.4552 12.0011 4.4552 12.0012 4.4552C12.0012 4.4552 12.0012 4.4552 12.0012 4.4552C12.0012 4.4552 12.0012 4.4552 12.0012 4.4552C12.0012 4.4552 12.0012 4.4552 12.0012 4.4552C12.0012 4.4552 12.0012 4.4552 12.0012 4.4552C12.0012 4.4552 12.0012 4.4552 12.0012 4.4552C12.0012 4.4552 12.0012 4.4552 12.0012 4.4552C12.0012 4.4552 12.0012 4.4552 12.0012 4.4552C12.0012 4.4552 12.0012 4.4552 12.0013 4.4552C12.0013 4.4552 12.0013 4.4552 12.0013 4.4552C12.0013 4.4552 12.0013 4.4552 12.0013 4.4552C12.0013 4.4552 12.0013 4.4552 12.0013 4.4552C12.0013 4.4552 12.0013 4.4552 12.0013 4.4552C12.0013 4.4552 12.0013 4.4552 12.0013 4.4552C12.0013 4.4552 12.0013 4.4552 12.0013 4.4552C12.0013 4.4552 12.0013 4.4552 12.0013 4.4552C12.0013 4.4552 12.0013 4.4552 12.0013 4.4552C12.0014 4.4552 12.0014 4.4552 12.0014 4.4552C12.0014 4.4552 12.0014 4.4552 12.0014 4.4552C12.0014 4.4552 12.0014 4.4552 12.0014 4.4552C12.0014 4.4552 12.0014 4.4552 12.0014 4.4552C12.0014 4.4552 12.0014 4.4552 12.0014 4.4552C12.0014 4.4552 12.0014 4.4552 12.0014 4.4552C12.0014 4.4552 12.0014 4.4552 12.0014 4.4552C12.0014 4.4552 12.0014 4.4552 12.0015 4.4552C12.0015 4.4552 12.0015 4.4552 12.0015 4.4552C12.0015 4.4552 12.0015 4.4552 12.0015 4.4552C12.0015 4.4552 12.0015 4.4552 12.0015 4.4552C12.0015 4.4552 12.0015 4.4552 12.0015 4.4552C12.0015 4.4552 12.0015 4.4552 12.0015 4.4552C12.0015 4.4552 12.0015 4.4552 12.0015 4.4552C12.0015 4.4552 12.0015 4.4552 12.0015 4.4552C12.0015 4.4552 12.0015 4.4552 12.0016 4.4552C12.0016 4.4552 12.0016 4.4552 12.0016 4.4552C12.0016 4.4552 12.0016 4.4552 12.0016 4.4552C12.0016 4.4552 12.0016 4.4552 12.0016 4.4552C12.0016 4.4552 12.0016 4.4552 12.0016 4.4552C12.0016 4.4552 12.0016 4.4552 12.0016 4.4552C12.0016 4.4552 12.0016 4.4552 12.0016 4.4552C12.0016 4.4552 12.0016 4.4552 12.0016 4.4552C12.0016 4.4552 12.0016 4.4552 12.0017 4.4552C12.0017 4.4552 12.0017 4.4552 12.0017 4.4552C12.0017 4.4552 12.0017 4.4552 12.0017 4.4552C12.0017 4.4552 12.0017 4.4552 12.0017 4.4552C12.0017 4.4552 12.0017 4.4552 12.0017 4.4552C12.0017 4.4552 12.0017 4.4552 12.0017 4.4552C12.0017 4.4552 12.0017 4.4552 12.0017 4.4552C12.0017 4.4552 12.0017 4.4552 12.0017 4.4552C12.0017 4.4552 12.0017 4.4552 12.0018 4.4552C12.0018 4.4552 12.0018 4.4552 12.0018 4.4552C12.0018 4.4552 12.0018 4.4552 12.0018 4.4552C12.0018 4.4552 12.0018 4.4552 12.0018 4.4552C12.0018 4.4552 12.0018 4.4552 12.0018 4.4552C12.0018 4.4552 12.0018 4.4552 12.0018 4.4552C12.0018 4.4552 12.0018 4.4552 12.0018 4.4552C12.0018 4.4552 12.0018 4.4552 12.0018 4.4552C12.0018 4.4552 12.0019 4.4552 12.0019 4.4552C12.0019 4.4552 12.0019 4.4552 12.0019 4.4552C12.0019 4.4552 12.0019 4.4552 12.0019 4.4552C12.0019 4.4552 12.0019 4.4552 12.0019 4.4552C12.0019 4.4552 12.0019 4.4552 12.0019 4.4552C12.0019 4.4552 12.0019 4.4552 12.0019 4.4552C12.0019 4.4552 12.0019 4.4552 12.0019 4.4552C12.0019 4.4552 12.0019 4.4552 12.0019 4.4552C12.0019 4.4552 12.002 4.4552 12.002 4.4552C12.002 4.4552 12.002 4.4552 12.002 4.4552C12.002 4.4552 12.002 4.4552 12.002 4.4552C12.002 4.4552 12.002 4.4552 12.002 4.4552C12.002 4.4552 12.002 4.4552 12.002 4.4552C12.002 4.4552 12.002 4.4552 12.002 4.4552C12.002 4.4552 12.002 4.4552 12.002 4.4552C12.002 4.4552 12.002 4.4552 12.002 4.4552C12.002 4.4552 12.0021 4.4552 12.0021 4.4552C12.0021 4.4552 12.0021 4.4552 12.0021 4.4552C12.0021 4.4552 12.0021 4.4552 12.0021 4.4552C12.0021 4.4552 12.0021 4.4552 12.0021 4.4552C12.0021 4.4552 12.0021 4.4552 12.0021 4.4552C12.0021 4.4552 12.0021 4.4552 12.0021 4.4552C12.0021 4.4552 12.0021 4.4552 12.0021 4.4552C12.0021 4.4552 12.0021 4.4552 12.0021 4.4552C12.0022 4.4552 12.0022 4.4552 12.0022 4.4552C12.0022 4.4552 12.0022 4.4552 12.0022 4.4552C12.0022 4.4552 12.0022 4.4552 12.0022 4.4552C12.0022 4.4552 12.0022 4.4552 12.0022 4.4552C12.0022 4.4552 12.0022 4.4552 12.0022 4.4552C12.0022 4.4552 12.0022 4.4552 12.0022 4.4552C12.0022 4.4552 12.0022 4.4552 12.0022 4.4552C12.0022 4.4552 12.0022 4.4552 12.0022 4.4552C12.0023 4.4552 12.0023 4.4552 12.0023 4.4552C12.0023 4.4552 12.0023 4.4552 12.0023 4.4552C12.0023 4.4552 12.0023 4.4552 12.0023 4.4552C12.0023 4.4552 12.0023 4.4552 12.0023 4.4552C12.0023 4.4552 12.0023 4.4552 12.0023 4.4552C12.0023 4.4552 12.0023 4.4552 12.0023 4.4552C12.0023 4.4552 12.0023 4.4552 12.0023 4.4552C12.0023 4.4552 12.0023 4.4552 12.0024 4.4552C12.0024 4.4552 12.0024 4.4552 12.0024 4.4552C12.0024 4.4552 12.0024 4.4552 12.0024 4.4552C12.0024 4.4552 12.0024 4.4552 12.0024 4.4552C12.0024 4.4552 12.0024 4.4552 12.0024 4.4552C12.0024 4.4552 12.0024 4.4552 12.0024 4.4552C12.0024 4.4552 12.0024 4.4552 12.0024 4.4552C12.0024 4.4552 12.0024 4.4552 12.0024 4.4552C12.0024 4.4552 12.0025 4.4552 12.0025 4.4552C12.0025 4.4552 12.0025 4.4552 12.0025 4.4552C12.0025 4.4552 12.0025 4.4552 12.0025 4.4552C12.0025 4.4552 12.0025 4.4552 12.0025 4.4552C12.0025 4.4552 12.0025 4.4552 12.0025 4.4552C12.0025 4.4552 12.0025 4.4552 12.0025 4.4552C12.0025 4.4552 12.0025 4.4552 12.0025 4.4552C12.0025 4.4552 12.0025 4.4552 12.0025 4.4552C12.0026 4.4552 12.0026 4.4552 12.0026 4.4552C12.0026 4.4552 12.0026 4.4552 12.0026 4.4552C12.0026 4.4552 12.0026 4.4552 12.0026 4.4552C12.0026 4.4552 12.0026 4.4552 12.0026 4.4552C12.0026 4.4552 12.0026 4.4552 12.0026 4.4552C12.0026 4.4552 12.0026 4.4552 12.0026 4.4552C12.0026 4.4552 12.0026 4.4552 12.0026 4.4552C12.0026 4.4552 12.0026 4.4552 12.0027 4.4552C12.0027 4.4552 12.0027 4.4552 12.0027 4.4552C12.0027 4.4552 12.0027 4.4552 12.0027 4.4552C12.0027 4.4552 12.0027 4.4552 12.0027 4.4552C12.0027 4.4552 12.0027 4.4552 12.0027 4.4552C12.0027 4.4552 12.0027 4.4552 12.0027 4.4552C12.0027 4.4552 12.0027 4.4552 12.0027 4.4552C12.0027 4.4552 12.0027 4.4552 12.0027 4.4552C12.0027 4.4552 12.0028 4.4552 12.0028 4.4552C12.0028 4.4552 12.0028 4.4552 12.0028 4.4552C12.0028 4.4552 12.0028 4.4552 12.0028 4.4552C12.0028 4.4552 12.0028 4.4552 12.0028 4.4552C12.0028 4.4552 12.0028 4.4552 12.0028 4.4552C12.0028 4.4552 12.0028 4.4552 12.0028 4.4552C12.0028 4.4552 12.0028 4.4552 12.0028 4.4552C12.0028 4.4552 12.0028 4.4552 12.0028 4.4552C12.0028 4.4552 12.0029 4.4552 12.0029 4.4552C12.0029 4.4552 12.0029 4.4552 12.0029 4.4552C12.0029 4.4552 12.0029 4.4552 12.0029 4.4552C12.0029 4.4552 12.0029 4.4552 12.0029 4.4552C12.0029 4.4552 12.0029 4.4552 12.0029 4.4552C12.0029 4.4552 12.0029 4.4552 12.0029 4.4552C12.0029 4.4552 12.0029 4.4552 12.0029 4.4552C12.0029 4.4552 12.0029 4.4552 12.0029 4.4552C12.003 4.4552 12.003 4.4552 12.003 4.4552C12.003 4.4552 12.003 4.4552 12.003 4.4552C12.003 4.4552 12.003 4.4552 12.003 4.4552C12.003 4.4552 12.003 4.4552 12.003 4.4552C12.003 4.4552 12.003 4.4552 12.003 4.4552C12.003 4.4552 12.003 4.4552 12.003 4.4552C12.003 4.4552 12.003 4.4552 12.003 4.4552C12.003 4.4552 12.0031 4.4552 12.0031 4.4552C12.0031 4.4552 12.0031 4.4552 12.0031 4.4552C12.0031 4.4552 12.0031 4.4552 12.0031 4.4552C12.0031 4.4552 12.0031 4.4552 12.0031 4.4552C12.0031 4.4552 12.0031 4.4552 12.0031 4.4552C12.0031 4.4552 12.0031 4.4552 12.0031 4.4552C12.0031 4.4552 12.0031 4.4552 12.0031 4.4552C12.0031 4.4552 12.0031 4.4552 12.0031 4.4552C12.0032 4.4552 12.0032 4.4552 12.0032 4.4552C12.0032 4.4552 12.0032 4.4552 12.0032 4.4552C12.0032 4.4552 12.0032 4.4552 12.0032 4.4552C12.0032 4.4552 12.0032 4.4552 12.0032 4.4552C12.0032 4.4552 12.0032 4.4552 12.0032 4.4552C12.0032 4.4552 12.0032 4.4552 12.0032 4.4552C12.0032 4.4552 12.0032 4.4552 12.0032 4.4552C12.0032 4.4552 12.0032 4.4552 12.0033 4.4552C12.0033 4.4552 12.0033 4.4552 12.0033 4.4552C12.0033 4.4552 12.0033 4.4552 12.0033 4.4552C12.0033 4.4552 12.0033 4.4552 12.0033 4.4552C12.0033 4.4552 12.0033 4.4552 12.0033 4.4552C12.0033 4.4552 12.0033 4.4552 12.0033 4.4552C12.0033 4.4552 12.0033 4.4552 12.0033 4.4552C12.0033 4.4552 12.0033 4.4552 12.0033 4.4552C12.0033 4.4552 12.0034 4.4552 12.0034 4.4552C12.0034 4.4552 12.0034 4.4552 12.0034 4.4552C12.0034 4.4552 12.0034 4.4552 12.0034 4.4552C12.0034 4.4552 12.0034 4.4552 12.0034 4.4552C12.0034 4.4552 12.0034 4.4552 12.0034 4.4552C12.0034 4.4552 12.0034 4.4552 12.0034 4.4552C12.0034 4.4552 12.0034 4.4552 12.0034 4.4552C12.0034 4.4552 12.0034 4.4552 12.0035 4.4552C12.0035 4.4552 12.0035 4.4552 12.0035 4.4552C12.0035 4.4552 12.0035 4.4552 12.0035 4.4552C12.0035 4.4552 12.0035 4.4552 12.0035 4.4552C12.0035 4.4552 12.0035 4.4552 12.0035 4.4552C12.0035 4.4552 12.0035 4.4552 12.0035 4.4552C12.0035 4.4552 12.0035 4.4552 12.0035 4.4552C12.0035 4.4552 12.0035 4.4552 12.0035 4.4552C12.0035 4.4552 12.0036 4.4552 12.0036 4.4552C12.0036 4.4552 12.0036 4.4552 12.0036 4.4552C12.0036 4.4552 12.0036 4.4552 12.0036 4.4552C12.0036 4.4552 12.0036 4.4552 12.0036 4.4552C12.0036 4.4552 12.0036 4.4552 12.0036 4.4552C12.0036 4.4552 12.0036 4.4552 12.0036 4.4552C12.0036 4.4552 12.0036 4.4552 12.0036 4.4552C12.0036 4.4552 12.0036 4.4552 12.0036 4.4552C12.0037 4.4552 12.0037 4.4552 12.0037 4.4552C12.0037 4.4552 12.0037 4.4552 12.0037 4.4552C12.0037 4.4552 12.0037 4.4552 12.0037 4.4552C12.0037 4.4552 12.0037 4.4552 12.0037 4.4552C12.0037 4.4552 12.0037 4.4552 12.0037 4.4552C12.0037 4.4552 12.0037 4.4552 12.0037 4.4552C12.0037 4.4552 12.0037 4.4552 12.0037 4.4552C12.0037 4.4552 12.0038 4.4552 12.0038 4.4552C12.0038 4.4552 12.0038 4.4552 12.0038 4.4552C12.0038 4.4552 12.0038 4.4552 12.0038 4.4552C12.0038 4.4552 12.0038 4.4552 12.0038 4.4552C12.0038 4.4552 12.0038 4.4552 12.0038 4.4552C12.0038 4.4552 12.0038 4.4552 12.0038 4.4552C12.0038 4.4552 12.0038 4.4552 12.0038 4.4552C12.0038 4.4552 12.0038 4.4552 12.0038 4.4552C12.0039 4.4552 12.0039 4.4552 12.0039 4.4552C12.0039 4.4552 12.0039 4.4552 12.0039 4.4552C12.0039 4.4552 12.0039 4.4552 12.0039 4.4552C12.0039 4.4552 12.0039 4.4552 12.0039 4.4552C12.0039 4.4552 12.0039 4.4552 12.0039 4.4552C12.0039 4.4552 12.0039 4.4552 12.0039 4.4552C12.0039 4.4552 12.0039 4.4552 12.0039 4.4552C12.0039 4.4552 12.004 4.4552 12.004 4.4552C12.004 4.4552 12.004 4.4552 12.004 4.4552C12.004 4.4552 12.004 4.4552 12.004 4.4552C12.004 4.4552 12.004 4.4552 12.004 4.4552C12.004 4.4552 12.004 4.4552 12.004 4.4552C12.004 4.4552 12.004 4.4552 12.004 4.4552C12.004 4.4552 12.004 4.4552 12.004 4.4552C12.004 4.4552 12.004 4.4552 12.0041 4.4552C12.0041 4.4552 12.0041 4.4552 12.0041 4.4552C12.0041 4.4552 12.0041 4.4552 12.0041 4.4552C12.0041 4.4552 12.0041 4.4552 12.0041 4.4552C12.0041 4.4552 12.0041 4.4552 12.0041 4.4552C12.0041 4.4552 12.0041 4.4552 12.0041 4.4552C12.0041 4.4552 12.0041 4.4552 12.0041 4.4552C12.0041 4.4552 12.0041 4.4552 12.0041 4.4552C12.0041 4.4552 12.0042 4.4552 12.0042 4.4552C12.0042 4.4552 12.0042 4.4552 12.0042 4.4552C12.0042 4.4552 12.0042 4.4552 12.0042 4.4552C12.0042 4.4552 12.0042 4.4552 12.0042 4.4552C12.0042 4.4552 12.0042 4.4552 12.0042 4.4552C12.0042 4.4552 12.0042 4.4552 12.0042 4.4552C12.0042 4.4552 12.0042 4.4552 12.0042 4.4552C12.0042 4.4552 12.0042 4.4552 12.0043 4.4552C12.0043 4.4552 12.0043 4.4552 12.0043 4.4552C12.0043 4.4552 12.0043 4.4552 12.0043 4.4552C12.0043 4.4552 12.0043 4.4552 12.0043 4.4552C12.0043 4.4552 12.0043 4.4552 12.0043 4.4552C12.0043 4.4552 12.0043 4.4552 12.0043 4.4552C12.0043 4.4552 12.0043 4.4552 12.0043 4.4552C12.0043 4.4552 12.0043 4.4552 12.0043 4.4552C12.0044 4.4552 12.0044 4.4552 12.0044 4.4552C12.0044 4.4552 12.0044 4.4552 12.0044 4.4552C12.0044 4.4552 12.0044 4.4552 12.0044 4.4552C12.0044 4.4552 12.0044 4.4552 12.0044 4.4552C12.0044 4.4552 12.0044 4.4552 12.0044 4.4552C12.0044 4.4552 12.0044 4.4552 12.0044 4.4552C12.0044 4.4552 12.0044 4.4552 12.0044 4.4552C12.0044 4.4552 12.0045 4.4552 12.0045 4.4552C12.0045 4.4552 12.0045 4.4552 12.0045 4.4552C12.0045 4.4552 12.0045 4.4552 12.0045 4.4552C12.0045 4.4552 12.0045 4.4552 12.0045 4.4552C12.0045 4.4552 12.0045 4.4552 12.0045 4.4552C12.0045 4.4552 12.0045 4.4552 12.0045 4.4552C12.0045 4.4552 12.0045 4.4552 12.0045 4.4552C12.0045 4.4552 12.0045 4.4552 12.0046 4.4552C12.0046 4.4552 12.0046 4.4552 12.0046 4.4552C12.0046 4.4552 12.0046 4.4552 12.0046 4.4552C12.0046 4.4552 12.0046 4.4552 12.0046 4.4552C12.0046 4.4552 12.0046 4.4552 12.0046 4.4552C12.0046 4.4552 12.0046 4.4552 12.0046 4.4552C12.0046 4.4552 12.0046 4.4552 12.0046 4.4552C12.0046 4.4552 12.0046 4.4552 12.0046 4.4552C12.0047 4.4552 12.0047 4.4552 12.0047 4.4552C12.0047 4.4552 12.0047 4.4552 12.0047 4.4552C12.0047 4.4552 12.0047 4.4552 12.0047 4.4552C12.0047 4.4552 12.0047 4.4552 12.0047 4.4552C12.0047 4.4552 12.0047 4.4552 12.0047 4.4552C12.0047 4.4552 12.0047 4.4552 12.0047 4.4552C12.0047 4.4552 12.0047 4.4552 12.0047 4.4552C12.0047 4.4552 12.0048 4.4552 12.0048 4.4552C12.0048 4.4552 12.0048 4.4552 12.0048 4.4552C12.0048 4.4552 12.0048 4.4552 12.0048 4.4552C12.0048 4.4552 12.0048 4.4552 12.0048 4.4552C12.0048 4.4552 12.0048 4.4552 12.0048 4.4552C12.0048 4.4552 12.0048 4.4552 12.0048 4.4552C12.0048 4.4552 12.0048 4.4552 12.0048 4.4552C12.0048 4.4552 12.0048 4.4552 12.0049 4.4552C12.0049 4.4552 12.0049 4.4552 12.0049 4.4552C12.0049 4.4552 12.0049 4.4552 12.0049 4.4552C12.0049 4.4552 12.0049 4.4552 12.0049 4.4552C12.0049 4.4552 12.0049 4.4552 12.0049 4.4552C12.0049 4.4552 12.0049 4.4552 12.0049 4.4552C12.0049 4.4552 12.0049 4.4552 12.0049 4.4552C12.0049 4.4552 12.0049 4.4552 12.0049 4.4552C12.005 4.4552 12.005 4.4552 12.005 4.4552C12.005 4.4552 12.005 4.4552 12.005 4.4552C12.005 4.4552 12.005 4.4552 12.005 4.4552C12.005 4.4552 12.005 4.4552 12.005 4.4552C12.005 4.4552 12.005 4.4552 12.005 4.4552C12.005 4.4552 12.005 4.4552 12.005 4.4552C12.005 4.4552 12.005 4.4552 12.005 4.4552C12.005 4.4552 12.0051 4.4552 12.0051 4.4552C12.0051 4.4552 12.0051 4.4552 12.0051 4.4552C12.0051 4.4552 12.0051 4.4552 12.0051 4.4552C12.0051 4.4552 12.0051 4.4552 12.0051 4.4552C12.0051 4.4552 12.0051 4.4552 12.0051 4.4552C12.0051 4.4552 12.0051 4.4552 12.0051 4.4552C12.0051 4.4552 12.0051 4.4552 12.0051 4.4552C12.0051 4.4552 12.0051 4.4552 12.0052 4.4552C12.0052 4.4552 12.0052 4.4552 12.0052 4.4552C12.0052 4.4552 12.0052 4.4552 12.0052 4.4552C12.0052 4.4552 12.0052 4.4552 12.0052 4.4552C12.0052 4.4552 12.0052 4.4552 12.0052 4.4552C12.0052 4.4552 12.0052 4.4552 12.0052 4.4552C12.0052 4.4552 12.0052 4.4552 12.0052 4.4552C12.0052 4.4552 12.0052 4.4552 12.0052 4.4552C12.0053 4.4552 12.0053 4.4552 12.0053 4.4552C12.0053 4.4552 12.0053 4.4552 12.0053 4.4552C12.0053 4.4552 12.0053 4.4552 12.0053 4.4552C12.0053 4.4552 12.0053 4.4552 12.0053 4.4552C12.0053 4.4552 12.0053 4.4552 12.0053 4.4552C12.0053 4.4552 12.0053 4.4552 12.0053 4.4552C12.0053 4.4552 12.0053 4.4552 12.0053 4.4552C12.0054 4.4552 12.0054 4.4552 12.0054 4.4552C12.0054 4.4552 12.0054 4.4552 12.0054 4.4552C12.0054 4.4552 12.0054 4.4552 12.0054 4.4552C12.0054 4.4552 12.0054 4.4552 12.0054 4.4552C12.0054 4.4552 12.0054 4.4552 12.0054 4.4552C12.0054 4.4552 12.0054 4.4552 12.0054 4.4552C12.0054 4.4552 12.0054 4.4552 12.0054 4.4552C12.0054 4.4552 12.0055 4.4552 12.0055 4.4552C12.0055 4.4552 12.0055 4.4552 12.0055 4.4552C12.0055 4.4552 12.0055 4.4552 12.0055 4.4552C12.0055 4.4552 12.0055 4.4552 12.0055 4.4552C12.0055 4.4552 12.0055 4.4552 12.0055 4.4552C12.0055 4.4552 12.0055 4.4552 12.0055 4.4552C12.0055 4.4552 12.0055 4.4552 12.0055 4.4552C12.0055 4.4552 12.0055 4.4552 12.0056 4.4552C12.0056 4.4552 12.0056 4.4552 12.0056 4.4552C12.0056 4.4552 12.0056 4.4552 12.0056 4.4552C12.0056 4.4552 12.0056 4.4552 12.0056 4.4552C12.0056 4.4552 12.0056 4.4552 12.0056 4.4552C12.0056 4.4552 12.0056 4.4552 12.0056 4.4552C12.0056 4.4552 12.0056 4.4552 12.0056 4.4552C12.0056 4.4552 12.0056 4.4552 12.0057 4.4552C12.0057 4.4552 12.0057 4.4552 12.0057 4.4552C12.0057 4.4552 12.0057 4.4552 12.0057 4.4552C12.0057 4.4552 12.0057 4.4552 12.0057 4.4552C12.0057 4.4552 12.0057 4.4552 12.0057 4.4552C12.0057 4.4552 12.0057 4.4552 12.0057 4.4552C12.0057 4.4552 12.0057 4.4552 12.0057 4.4552C12.0057 4.4552 12.0057 4.4552 12.0057 4.4552C12.0058 4.4552 12.0058 4.4552 12.0058 4.4552C12.0058 4.4552 12.0058 4.4552 12.0058 4.4552C12.0058 4.4552 12.0058 4.4552 12.0058 4.4552C12.0058 4.4552 12.0058 4.4552 12.0058 4.4552C12.0058 4.4552 12.0058 4.4552 12.0058 4.4552C12.0058 4.4552 12.0058 4.4552 12.0058 4.4552C12.0058 4.4552 12.0058 4.4552 12.0058 4.4552C12.0059 4.4552 12.0059 4.4552 12.0059 4.4552C12.0059 4.4552 12.0059 4.4552 12.0059 4.4552C12.0059 4.4552 12.0059 4.4552 12.0059 4.4552C12.0059 4.4552 12.0059 4.4552 12.0059 4.4552C12.0059 4.4552 12.0059 4.4552 12.0059 4.4552C12.0059 4.4552 12.0059 4.4552 12.0059 4.4552C12.0059 4.4552 12.0059 4.4552 12.0059 4.4552C12.0059 4.4552 12.006 4.4552 12.006 4.4552C12.006 4.4552 12.006 4.4552 12.006 4.4552C12.006 4.4552 12.006 4.4552 12.006 4.4552C12.006 4.4552 12.006 4.4552 12.006 4.4552C12.006 4.4552 12.006 4.4552 12.006 4.4552C12.006 4.4552 12.006 4.4552 12.006 4.4552C12.006 4.4552 12.006 4.4552 12.006 4.4552C12.006 4.4552 12.0061 4.4552 12.0061 4.4552C12.0061 4.4552 12.0061 4.4552 12.0061 4.4552C12.0061 4.4552 12.0061 4.4552 12.0061 4.4552C12.0061 4.4552 12.0061 4.4552 12.0061 4.4552C12.0061 4.4552 12.0061 4.4552 12.0061 4.4552C12.0061 4.4552 12.0061 4.4552 12.0061 4.4552C12.0061 4.4552 12.0061 4.4552 12.0061 4.4552C12.0061 4.4552 12.0062 4.4552 12.0062 4.4552C12.0062 4.4552 12.0062 4.4552 12.0062 4.4552C12.0062 4.4552 12.0062 4.4552 12.0062 4.4552C12.0062 4.4552 12.0062 4.4552 12.0062 4.4552C12.0062 4.4552 12.0062 4.4552 12.0062 4.4552C12.0062 4.4552 12.0062 4.4552 12.0062 4.4552C12.0062 4.4552 12.0062 4.4552 12.0062 4.4552C12.0062 4.4552 12.0062 4.4552 12.0063 4.4552C12.0063 4.4552 12.0063 4.4552 12.0063 4.4552C12.0063 4.4552 12.0063 4.4552 12.0063 4.4552C12.0063 4.4552 12.0063 4.4552 12.0063 4.4552C12.0063 4.4552 12.0063 4.4552 12.0063 4.4552C12.0063 4.4552 12.0063 4.4552 12.0063 4.4552C12.0063 4.4552 12.0063 4.4552 12.0063 4.4552C12.0063 4.4552 12.0063 4.4552 12.0064 4.4552C12.0064 4.4552 12.0064 4.4552 12.0064 4.4552C12.0064 4.4552 12.0064 4.4552 12.0064 4.4552C12.0064 4.4552 12.0064 4.4552 12.0064 4.4552C12.0064 4.4552 12.0064 4.4552 12.0064 4.4552C12.0064 4.4552 12.0064 4.4552 12.0064 4.4552C12.0064 4.4552 12.0064 4.4552 12.0064 4.4552C12.0064 4.4552 12.0064 4.4552 12.0065 4.4552C12.0065 4.4552 12.0065 4.4552 12.0065 4.4552C12.0065 4.4552 12.0065 4.4552 12.0065 4.4552C12.0065 4.4552 12.0065 4.4552 12.0065 4.4552C12.0065 4.4552 12.0065 4.4552 12.0065 4.4552C12.0065 4.4552 12.0065 4.4552 12.0065 4.4552C12.0065 4.4552 12.0065 4.4552 12.0065 4.4552C12.0065 4.4552 12.0065 4.4552 12.0065 4.4552C12.0066 4.4552 12.0066 4.4552 12.0066 4.4552C12.0066 4.4552 12.0066 4.4552 12.0066 4.4552C12.0066 4.4552 12.0066 4.4552 12.0066 4.4552C12.0066 4.4552 12.0066 4.4552 12.0066 4.4552C12.0066 4.4552 12.0066 4.4552 12.0066 4.4552C12.0066 4.4552 12.0066 4.4552 12.0066 4.4552C12.0066 4.4552 12.0066 4.4552 12.0066 4.4552C12.0067 4.4552 12.0067 4.4552 12.0067 4.4552C12.0067 4.4552 12.0067 4.4552 12.0067 4.4552C12.0067 4.4552 12.0067 4.4552 12.0067 4.4552C12.0067 4.4552 12.0067 4.4552 12.0067 4.4552C12.0067 4.4552 12.0067 4.4552 12.0067 4.4552C12.0067 4.4552 12.0067 4.4552 12.0067 4.4552C12.0067 4.4552 12.0067 4.4552 12.0067 4.4552C12.0068 4.4552 12.0068 4.4552 12.0068 4.4552C12.0068 4.4552 12.0068 4.4552 12.0068 4.4552C12.0068 4.4552 12.0068 4.4552 12.0068 4.4552C12.0068 4.4552 12.0068 4.4552 12.0068 4.4552C12.0068 4.4552 12.0068 4.4552 12.0068 4.4552C12.0068 4.4552 12.0068 4.4552 12.0068 4.4552C12.0068 4.4552 12.0068 4.4552 12.0068 4.4552C12.0069 4.4552 12.0069 4.4552 12.0069 4.4552C12.0069 4.4552 12.0069 4.4552 12.0069 4.4552C12.0069 4.4552 12.0069 4.4552 12.0069 4.4552V3.4552ZM12.0001 3.4552C12.0188 3.4552 12.0337 3.4563 12.0418 3.457C12.0461 3.45737 12.0494 3.45773 12.0513 3.45793C12.053 3.45811 12.0545 3.45828 12.0539 3.45821C12.0538 3.45821 12.0533 3.45814 12.0526 3.45807C12.0519 3.45799 12.0509 3.45788 12.0496 3.45774C12.0472 3.45748 12.0433 3.45707 12.0385 3.45665C12.0292 3.45585 12.0133 3.45469 11.9935 3.45469V4.45469C11.9748 4.45469 11.9599 4.4536 11.9518 4.45289C11.9476 4.45252 11.9442 4.45217 11.9423 4.45196C11.9406 4.45178 11.9392 4.45161 11.9397 4.45168C11.9398 4.45169 11.9404 4.45175 11.941 4.45182C11.9417 4.4519 11.9427 4.45202 11.944 4.45215C11.9464 4.45242 11.9504 4.45282 11.9552 4.45324C11.9644 4.45405 11.9803 4.4552 12.0001 4.4552V3.4552ZM11.9872 3.45473C11.6224 3.4593 11.2477 3.4837 10.8681 3.55098L11.0426 4.53563C11.3525 4.48071 11.6699 4.45879 11.9998 4.45465L11.9872 3.45473ZM11.4161 3.84895C11.1202 3.1476 10.7786 2.42562 10.4018 1.75504L9.53003 2.24496C9.88421 2.87522 10.2096 3.56195 10.4947 4.23766L11.4161 3.84895ZM9.85117 1.51334C8.90937 1.7354 7.96196 2.048 7.06572 2.52635L7.53658 3.40856C8.33505 2.98239 9.19521 2.69542 10.0807 2.48666L9.85117 1.51334ZM6.8013 2.97965C6.82096 3.78572 6.87024 4.56343 6.97092 5.35623L7.96295 5.23025C7.86752 4.47872 7.82004 3.73594 7.801 2.95526L6.8013 2.97965ZM7.18597 4.87964C6.90739 5.06889 6.49414 5.30568 6.16057 5.58962L6.80875 6.35111C7.08999 6.11171 7.36831 5.96469 7.74789 5.70683L7.18597 4.87964ZM6.16857 5.58296C5.87331 5.82387 5.51891 6.095 5.20795 6.42274L5.93337 7.11104C6.18781 6.84288 6.47147 6.62644 6.80076 6.35777L6.16857 5.58296ZM5.85776 6.35753C5.27791 5.95087 4.66286 5.5676 4.02737 5.22844L3.55653 6.11066C4.15294 6.42896 4.73356 6.79052 5.28356 7.17625L5.85776 6.35753ZM3.41589 5.34003C2.73673 6.11511 2.09223 6.96234 1.56266 7.91794L2.43734 8.40266C2.92204 7.52801 3.51927 6.73942 4.16801 5.99906L3.41589 5.34003ZM1.56804 8.41211C1.95743 9.08007 2.36558 9.70899 2.80786 10.3076L3.61215 9.71337C3.19421 9.1477 2.80571 8.54961 2.43196 7.90848L1.56804 8.41211ZM3.21 10.5105H3.22195V9.51049H3.21V10.5105ZM2.72195 10.0105L2.722 15.6273L3.722 15.6273L3.72195 10.0105L2.72195 10.0105ZM3.21904 16.1273C3.21513 16.1272 3.20877 16.1271 3.20031 16.1262L3.30164 15.1313C3.27404 15.1285 3.24822 15.1274 3.22496 15.1273L3.21904 16.1273ZM3.20013 16.1262L6.44733 16.4581L6.54902 15.4633L3.30182 15.1314L3.20013 16.1262ZM6.44722 16.4581C6.35366 16.4485 6.31712 16.3778 6.31443 16.3368L7.3123 16.2714C7.28593 15.8688 6.9829 15.5077 6.54913 15.4633L6.44722 16.4581ZM6.31445 16.337L6.41461 17.857L7.41245 17.7913L7.31228 16.2712L6.31445 16.337ZM6.87579 18.3227L9.70829 18.5371L9.78376 17.5399L6.95126 17.3256L6.87579 18.3227ZM10.2413 18.1074L10.4363 16.7044L9.44587 16.5667L9.25079 17.9697L10.2413 18.1074ZM10.4363 16.7044C10.4303 16.7476 10.3848 16.8189 10.2871 16.8189V15.8189C9.84238 15.8189 9.50247 16.1597 9.44587 16.5667L10.4363 16.7044ZM10.2871 16.8189H13.713V15.8189H10.2871V16.8189ZM13.713 16.8189C13.6151 16.8189 13.5697 16.7475 13.5637 16.7044L14.5541 16.5667C14.4975 16.1598 14.1577 15.8189 13.713 15.8189V16.8189ZM13.5637 16.7044L13.7587 18.1074L14.7492 17.9697L14.5541 16.5667L13.5637 16.7044ZM14.2917 18.5371L17.1243 18.3227L17.0488 17.3256L14.2162 17.5399L14.2917 18.5371ZM17.5855 17.857L17.6856 16.337L16.6877 16.2713L16.5877 17.7913L17.5855 17.857ZM17.6855 16.3371C17.6828 16.378 17.6464 16.4484 17.5531 16.4581L17.4505 15.4633C17.0171 15.508 16.7143 15.8688 16.6877 16.2711L17.6855 16.3371ZM17.5527 16.4581L20.7986 16.1262L20.6969 15.1314L17.451 15.4633L17.5527 16.4581ZM20.7981 16.1262C20.793 16.1267 20.7891 16.127 20.7866 16.1271C20.7841 16.1272 20.7827 16.1272 20.7827 16.1272L20.7708 15.1273C20.7518 15.1275 20.7264 15.1284 20.6973 15.1313L20.7981 16.1262ZM21.2767 15.6272L21.2766 15.1789L20.2766 15.1791L20.2767 15.6274L21.2767 15.6272ZM20.9319 15.6543L20.9333 15.6539L20.6228 14.7033L20.6214 14.7037L20.9319 15.6543ZM21.2781 15.1786V10.0105H20.2781V15.1786H21.2781ZM20.7781 10.5105H20.79V9.51049H20.7781V10.5105ZM21.1921 10.3076C21.6345 9.70887 22.0424 9.07997 22.4319 8.41221L21.5681 7.90839C21.1941 8.54959 20.8058 9.14769 20.3879 9.71337L21.1921 10.3076ZM22.4374 7.91801C21.9079 6.96227 21.2632 6.11501 20.5841 5.34002L19.832 5.99908C20.4808 6.73941 21.0781 7.52796 21.5626 8.40259L22.4374 7.91801ZM7.39683 13.8658C6.61987 13.8658 5.94023 13.189 5.94023 12.2905H4.94023C4.94023 13.6852 6.01312 14.8658 7.39683 14.8658V13.8658ZM5.94023 12.2905C5.94023 11.3931 6.61967 10.7164 7.39683 10.7164V9.71644C6.01344 9.71644 4.94023 10.8964 4.94023 12.2905H5.94023ZM7.39683 10.7164C8.17409 10.7164 8.85375 11.3932 8.85375 12.2905H9.85375C9.85375 10.8963 8.78011 9.71644 7.39683 9.71644V10.7164ZM8.85375 12.2905C8.85375 13.1889 8.17434 13.8658 7.39683 13.8658V14.8658C8.78105 14.8658 9.85375 13.6852 9.85375 12.2905H8.85375ZM16.6032 13.8658C15.8255 13.8658 15.1461 13.1889 15.1461 12.2905H14.1461C14.1461 13.6852 15.2188 14.8658 16.6032 14.8658V13.8658ZM15.1461 12.2905C15.1461 11.3931 15.8252 10.7164 16.6032 10.7164V9.71644C15.219 9.71644 14.1461 10.8964 14.1461 12.2905H15.1461ZM16.6032 10.7164C17.3802 10.7164 18.0596 11.3931 18.0596 12.2905H19.0596C19.0596 10.8964 17.9866 9.71644 16.6032 9.71644V10.7164ZM18.0596 12.2905C18.0596 13.189 17.38 13.8658 16.6032 13.8658V14.8658C17.9869 14.8658 19.0596 13.6851 19.0596 12.2905H18.0596ZM7.58405 11.4837C7.0566 11.4837 6.67859 11.9284 6.67859 12.4138H7.67859C7.67859 12.4236 7.67451 12.4385 7.66115 12.4527C7.64731 12.4674 7.62003 12.4837 7.58405 12.4837V11.4837ZM6.67859 12.4138C6.67859 12.8995 7.05694 13.3436 7.58405 13.3436V12.3436C7.61984 12.3436 7.6471 12.3598 7.66103 12.3746C7.67448 12.3888 7.67859 12.4039 7.67859 12.4138H6.67859ZM7.58405 13.3436C8.11131 13.3436 8.48956 12.8994 8.48956 12.4138H7.48956C7.48956 12.4038 7.49368 12.3888 7.50712 12.3746C7.52107 12.3598 7.54833 12.3436 7.58405 12.3436V13.3436ZM8.48956 12.4138C8.48956 11.9285 8.11165 11.4837 7.58405 11.4837V12.4837C7.54813 12.4837 7.52085 12.4674 7.507 12.4527C7.49365 12.4386 7.48956 12.4237 7.48956 12.4138H8.48956ZM11.4996 12.0033V13.9814H12.4996V12.0033H11.4996Z" fill="black"/>
</svg>
