<svg width="24" height="24" viewBox="0 0 24 24" fill="none" xmlns="http://www.w3.org/2000/svg">
<path d="M9.96625 3C9.055 3.20652 8.15 3.49175 7.3 3.92179C7.31938 4.6761 7.36813 5.39767 7.46625 6.12868C7.1375 6.34213 6.7925 6.52535 6.48625 6.77469C6.17375 7.01395 5.855 7.24692 5.57125 7.529C5.005 7.15499 4.40938 6.80113 3.79063 6.48946C3.12625 7.20788 2.50813 7.98486 2 8.85376C2.38063 9.4771 2.78125 10.057 3.21125 10.6117H3.22125V15.9473C3.23125 15.9473 3.24063 15.9473 3.25063 15.9504L6.49938 16.2652C6.66875 16.2816 6.80188 16.4195 6.81188 16.5933L6.9125 18.0364L9.74438 18.2398L9.94 16.9081C9.96625 16.7343 10.1125 16.6065 10.285 16.6065H13.7125C13.885 16.6065 14.0313 16.7343 14.0575 16.9081L14.2531 18.2398L17.085 18.0364L17.1856 16.5933C17.1956 16.4195 17.3288 16.2816 17.5013 16.2652L20.7469 15.9504C20.7569 15.9504 20.7663 15.9473 20.7763 15.9473V10.6117H20.7894C21.2194 10.0608 21.6163 9.4771 21.9969 8.85376C21.4925 7.98486 20.8706 7.20725 20.2063 6.48946C19.5913 6.80113 18.9919 7.15499 18.4256 7.529C18.1425 7.24692 17.8269 7.01395 17.5144 6.77469C17.205 6.52535 16.86 6.3415 16.5313 6.12868C16.6288 5.39767 16.6775 4.6761 16.6975 3.92179C15.8513 3.49238 14.9463 3.20715 14.0313 3C13.6669 3.61957 13.3344 4.28887 13.045 4.94118C12.7 4.88514 12.3519 4.86247 12.0069 4.85933H11.9906C11.6456 4.86247 11.2975 4.88577 10.9525 4.94118C10.6625 4.28887 10.3306 3.61957 9.96313 3H9.96625ZM7.3975 10.8113C8.47813 10.8113 9.35375 11.6966 9.35375 12.7852C9.35375 13.8739 8.47813 14.756 7.3975 14.756C6.31688 14.756 5.44125 13.8739 5.44125 12.7852C5.44125 11.6966 6.31688 10.8113 7.3975 10.8113ZM16.6038 10.8113C17.6844 10.8113 18.56 11.6966 18.56 12.7852C18.56 13.8739 17.6844 14.756 16.6038 14.756C15.5231 14.756 14.6475 13.8739 14.6475 12.7852C14.6475 11.6966 15.5231 10.8113 16.6038 10.8113ZM7.58313 11.5952C6.86688 11.5952 6.28438 12.1789 6.28438 12.9036C6.28438 13.6252 6.86688 14.2088 7.58313 14.2088C8.3025 14.2088 8.885 13.6252 8.885 12.9036C8.885 12.1789 8.3025 11.5952 7.58313 11.5952ZM16.415 11.5952C15.6988 11.5952 15.1163 12.1789 15.1163 12.9036C15.1163 13.6252 15.6988 14.2088 16.415 14.2088C17.1344 14.2088 17.7138 13.6252 17.7138 12.9036C17.7138 12.1789 17.1344 11.5952 16.415 11.5952ZM12.0006 11.9755C12.3488 11.9755 12.6319 12.2311 12.6319 12.5491V14.3656C12.6319 14.6836 12.3488 14.943 12.0006 14.943C11.6525 14.943 11.3694 14.6842 11.3694 14.3656V12.5491C11.3694 12.2311 11.6525 11.9755 12.0006 11.9755ZM3.21813 16.6518C3.21813 16.9698 3.22125 17.3142 3.22125 17.3829C3.22125 20.492 7.13375 21.9836 11.9938 22H12.0069C16.8669 21.9836 20.7763 20.4914 20.7763 17.3829C20.7763 17.3142 20.7794 16.9698 20.7825 16.6518L17.8625 16.9371L17.7619 18.3896C17.7488 18.5634 17.6119 18.7045 17.4394 18.7145L13.9531 18.9639C13.7838 18.9639 13.6344 18.8392 13.6081 18.6654L13.4094 17.3079H10.5869L10.3881 18.6654C10.3619 18.8455 10.2025 18.9771 10.0169 18.9639L6.56 18.7145C6.3875 18.7013 6.2475 18.5634 6.23438 18.3896L6.13688 16.9371L3.21688 16.655L3.21813 16.6518Z" fill="black"/>
</svg>
