<svg width="24" height="24" viewBox="0 0 24 24" fill="none" xmlns="http://www.w3.org/2000/svg">
<path d="M6 18V10.32H8.78172V18H6ZM7.39086 9.52C7.01459 9.52 6.69207 9.39667 6.4233 9.15C6.15454 8.90333 6.02016 8.60667 6.02016 8.26C6.02016 7.91333 6.15454 7.61667 6.4233 7.37C6.69207 7.12333 7.01459 7 7.39086 7C7.77049 7 8.09301 7.12333 8.35841 7.37C8.62718 7.61667 8.76156 7.91333 8.76156 8.26C8.76156 8.60667 8.62718 8.90333 8.35841 9.15C8.09301 9.39667 7.77049 9.52 7.39086 9.52Z" fill="black"/>
<path d="M12.9807 13.68V18H10.199V10.32H12.8396V11.78H12.9203C13.0883 11.2933 13.3839 10.9117 13.8072 10.635C14.2339 10.3583 14.7311 10.22 15.2988 10.22C15.8464 10.22 16.3218 10.345 16.725 10.595C17.1315 10.8417 17.4456 11.1817 17.6673 11.615C17.8924 12.0483 18.0033 12.5433 17.9999 13.1V18H15.2182V13.68C15.2216 13.3 15.1241 13.0017 14.9259 12.785C14.7311 12.5683 14.459 12.46 14.1096 12.46C13.8811 12.46 13.6812 12.51 13.5099 12.61C13.3419 12.7067 13.2126 12.8467 13.1218 13.03C13.0311 13.21 12.9841 13.4267 12.9807 13.68Z" fill="black"/>
</svg>
