<svg width="24" height="24" viewBox="0 0 24 24" fill="none" xmlns="http://www.w3.org/2000/svg">
<path fill-rule="evenodd" clip-rule="evenodd" d="M6 3C4.89543 3 4 3.89543 4 5V17C4 18.1046 4.89543 19 6 19H18C19.1046 19 20 18.1046 20 17V5C20 3.89543 19.1046 3 18 3H6ZM6 9.32V17H8.78172V9.32H6ZM6.42331 8.15C6.69207 8.39667 7.01459 8.52 7.39086 8.52C7.77049 8.52 8.09301 8.39667 8.35841 8.15C8.62717 7.90333 8.76156 7.60667 8.76156 7.26C8.76156 6.91333 8.62717 6.61667 8.35841 6.37C8.09301 6.12333 7.77049 6 7.39086 6C7.01459 6 6.69207 6.12333 6.42331 6.37C6.15454 6.61667 6.02016 6.91333 6.02016 7.26C6.02016 7.60667 6.15454 7.90333 6.42331 8.15ZM12.9807 17V12.68C12.9841 12.4267 13.0311 12.21 13.1218 12.03C13.2126 11.8467 13.3419 11.7067 13.5099 11.61C13.6812 11.51 13.8811 11.46 14.1096 11.46C14.459 11.46 14.7311 11.5683 14.9259 11.785C15.1241 12.0017 15.2216 12.3 15.2182 12.68V17H17.9999V12.1C18.0033 11.5433 17.8924 11.0483 17.6673 10.615C17.4456 10.1817 17.1315 9.84167 16.725 9.595C16.3218 9.345 15.8465 9.22 15.2988 9.22C14.7311 9.22 14.2339 9.35833 13.8072 9.635C13.3839 9.91167 13.0882 10.2933 12.9203 10.78H12.8396V9.32H10.199V17H12.9807Z" fill="black"/>
</svg>
