<svg width="24" height="24" viewBox="0 0 24 24" fill="none" xmlns="http://www.w3.org/2000/svg">
<path fill-rule="evenodd" clip-rule="evenodd" d="M16.1667 3H7.83333L7 4L6 5H4C2.89543 5 2 5.89543 2 7V19C2 20.1046 2.89543 21 4 21H20C21.1046 21 22 20.1046 22 19V7C22 5.89543 21.1046 5 20 5H18L17 4L16.1667 3ZM12 16C13.6569 16 15 14.6569 15 13C15 11.3431 13.6569 10 12 10C10.3431 10 9 11.3431 9 13C9 14.6569 10.3431 16 12 16ZM12 18C14.7614 18 17 15.7614 17 13C17 10.2386 14.7614 8 12 8C9.23858 8 7 10.2386 7 13C7 15.7614 9.23858 18 12 18ZM18 10C18.5523 10 19 9.55228 19 9C19 8.44772 18.5523 8 18 8C17.4477 8 17 8.44772 17 9C17 9.55228 17.4477 10 18 10Z" fill="black"/>
<line x1="21.7071" y1="3.70711" x2="4.02944" y2="21.3848" stroke="black" stroke-width="2"/>
</svg>
