<svg width="24" height="24" viewBox="0 0 24 24" fill="none" xmlns="http://www.w3.org/2000/svg">
<path d="M15.8748 17.353C16.2217 17.6894 16.6187 17.9559 17.0481 18.1475L14.461 20.6563C13.6116 21.4799 12.2084 21.4799 11.359 20.6563L8.84967 18.223C9.33638 18.0286 9.78534 17.7405 10.172 17.3655L13.0299 14.5942L15.8748 17.353Z" stroke="black" stroke-width="2"/>
<path d="M8.82833 6.04654L11.3343 3.61795L11.3345 3.61775C12.1839 2.79408 13.587 2.79408 14.4364 3.61775L17.0306 6.13327C16.6083 6.32408 16.2178 6.58758 15.8759 6.9189C15.8755 6.91922 15.8752 6.91955 15.8749 6.91988L13.0176 9.67921L10.1592 6.90741C9.77025 6.53026 9.31831 6.2409 8.82833 6.04654Z" stroke="black" stroke-width="2"/>
<path d="M11.266 12.0276C11.303 12.0635 11.3408 12.098 11.3795 12.1312C11.3362 12.1675 11.2941 12.2055 11.2531 12.2452L8.10964 15.2935L8.10331 15.2996L8.09708 15.3059C7.90569 15.4981 7.61052 15.6238 7.29134 15.6238H6.1447L4.06161 13.6038C3.22946 12.7969 3.22946 11.4885 4.06161 10.6815L6.15756 8.64911H7.3042C7.60298 8.64911 7.90788 8.77127 8.12251 8.97938L11.266 12.0276ZM14.7785 12.2452C14.7398 12.2076 14.7 12.1716 14.6592 12.137C14.7004 12.1021 14.7406 12.0656 14.7797 12.0276L17.9114 8.99199L17.9178 8.98578L17.9241 8.97946C18.1155 8.78721 18.4106 8.66159 18.7298 8.66159H19.6367L21.7198 10.6815C22.5518 11.4884 22.5519 12.7837 21.7181 13.5907L21.7175 13.5913L19.6344 15.6113H18.7275C18.4287 15.6113 18.1238 15.4891 17.9092 15.281L14.7793 12.2459C14.7791 12.2458 14.7789 12.2456 14.7787 12.2454C14.7787 12.2453 14.7786 12.2453 14.7785 12.2452Z" stroke="black" stroke-width="2"/>
</svg>
