<svg width="24" height="24" viewBox="0 0 24 24" fill="none" xmlns="http://www.w3.org/2000/svg">
<path d="M18.7114 17.5049C17.8905 17.5049 17.121 17.1987 16.5397 16.6351L13.4091 13.5993C13.1939 13.3907 12.8033 13.3907 12.5881 13.5993L9.44463 16.6476C8.8634 17.2112 8.0939 17.5174 7.27294 17.5174H6.6543L10.6316 21.3742C11.8689 22.574 13.8886 22.574 15.1259 21.3742L19.1149 17.506L18.7114 17.5049Z" fill="black"/>
<path d="M7.26011 6.75552C8.08107 6.75552 8.85057 7.0617 9.43179 7.62531L12.5753 10.6736C12.8022 10.8936 13.1682 10.8936 13.3963 10.6736L16.5398 7.63778C17.121 7.07418 17.8905 6.76799 18.7114 6.76799H19.0904L15.1013 2.89985C13.864 1.70005 11.8444 1.70005 10.6071 2.89985L6.6286 6.75552H7.26011Z" fill="black"/>
<path d="M22.3847 9.96365L19.9733 7.6253C19.923 7.65025 19.8598 7.66159 19.7967 7.66159H18.6986C18.1302 7.66159 17.5747 7.88159 17.1841 8.27396L14.0523 11.3097C13.7623 11.591 13.3705 11.7384 12.9916 11.7384C12.5998 11.7384 12.2209 11.591 11.9309 11.3097L8.7874 8.26148C8.38394 7.87025 7.82845 7.64911 7.27295 7.64911H5.92223C5.85908 7.64911 5.80879 7.63664 5.7585 7.61282L3.33422 9.96365C2.09693 11.1634 2.09693 13.1219 3.33422 14.3217L5.74564 16.66C5.79593 16.6351 5.84621 16.6238 5.90936 16.6238H7.26009C7.82845 16.6238 8.38394 16.4038 8.77454 16.0114L11.918 12.9631C12.4864 12.412 13.4839 12.412 14.0511 12.9631L17.1818 15.9989C17.5852 16.3901 18.1407 16.6113 18.6962 16.6113H19.7943C19.8575 16.6113 19.9078 16.6238 19.9709 16.6476L22.3824 14.3092C23.622 13.1094 23.622 11.1634 22.3847 9.96365Z" fill="black"/>
</svg>
