<svg width="24" height="24" viewBox="0 0 24 24" fill="none" xmlns="http://www.w3.org/2000/svg">
<path d="M10.9456 15.8819C11.2894 15.8975 11.6406 15.9088 11.9962 15.9088C12.3556 15.9088 12.7106 15.9013 13.0587 15.8819C12.7106 16.3319 12.3669 16.73 12.0031 17.1094L12.0081 17.1044C11.6462 16.7294 11.2987 16.3306 10.9712 15.9156L10.9456 15.8819ZM7.38436 15.3819C8.06124 15.5537 8.88686 15.7 9.72936 15.79L9.81124 15.7969C10.3269 16.505 10.8481 17.1281 11.4075 17.7144L11.4006 17.7069C10.5812 18.6213 9.47561 19.2638 8.22499 19.4944L8.19061 19.4994C8.18811 19.4994 8.18561 19.4994 8.18311 19.4994C8.02811 19.4994 7.88186 19.4613 7.75374 19.3938L7.75874 19.3962C7.23874 19.0994 7.01311 17.9637 7.18874 16.5044C7.23061 16.145 7.29936 15.7669 7.38374 15.3812L7.38436 15.3819ZM16.6237 15.3738C16.6975 15.67 16.7669 16.0475 16.8162 16.4312L16.8219 16.485C17.0012 17.9438 16.78 19.0781 16.2644 19.3813C16.1494 19.445 16.0119 19.4825 15.8656 19.4825C15.8512 19.4825 15.8369 19.4819 15.8225 19.4813H15.8244C14.5412 19.2469 13.4362 18.6088 12.6187 17.7056L12.6144 17.7006C13.1637 17.1238 13.6812 16.5019 14.1556 15.8475L14.1919 15.795C15.1144 15.6988 15.9412 15.55 16.7469 15.3469L16.6237 15.3731V15.3738ZM8.11499 13.0413C8.27124 13.3475 8.43499 13.6525 8.61499 13.9588C8.79457 14.2633 8.97811 14.5608 9.16561 14.8512C8.62311 14.7719 8.09936 14.6719 7.59874 14.55C7.73936 14.0581 7.91561 13.5487 8.11436 13.04L8.11499 13.0413ZM15.8825 13.0256C16.0894 13.5388 16.265 14.0506 16.4106 14.5469C15.9106 14.6694 15.3825 14.7731 14.8362 14.8512C15.0237 14.5581 15.2112 14.2563 15.3869 13.9469C15.5625 13.6425 15.7269 13.3313 15.8837 13.025L15.8825 13.0256ZM6.76186 9.6825C7.03436 10.6062 7.32686 11.3787 7.66749 12.1237L7.62061 12.01C7.32936 12.6381 7.04124 13.4062 6.80499 14.1969L6.77249 14.325C6.33124 14.1894 5.97624 14.0563 5.63061 13.9069L5.70249 13.9344C4.34999 13.3588 3.47499 12.6019 3.47499 12.0019C3.47499 11.4019 4.34999 10.6413 5.70249 10.0681C6.03061 9.9275 6.39061 9.80062 6.76186 9.6825ZM17.2237 9.67937C17.6019 9.79625 17.9612 9.92688 18.2975 10.0681C19.65 10.6463 20.525 11.4019 20.525 12.0019C20.5212 12.6019 19.6462 13.3606 18.2937 13.935C17.9656 14.0756 17.6062 14.2019 17.2356 14.32C16.9606 13.3931 16.6681 12.6213 16.3287 11.875L16.3762 11.9925C16.6662 11.365 16.955 10.5969 17.1906 9.80625L17.2237 9.6775V9.67937ZM14.8312 9.1525C15.3744 9.23313 15.8975 9.33188 16.3981 9.455C16.2575 9.94875 16.0819 10.4563 15.8825 10.965C15.7262 10.6606 15.5625 10.3538 15.3825 10.0481C15.2069 9.74188 15.0194 9.44375 14.8319 9.15312L14.8312 9.1525ZM9.16124 9.1525C8.97374 9.44688 8.78624 9.74813 8.61124 10.0588C8.43561 10.3631 8.27124 10.6694 8.11499 10.9756C7.90811 10.4631 7.73249 9.9525 7.58686 9.455C8.08686 9.33813 8.61374 9.23375 9.16061 9.15375L9.16124 9.1525ZM12 8.95375C12.5781 8.95375 13.1537 8.98 13.72 9.02625C14.0371 9.48083 14.345 9.965 14.6437 10.4788C14.9342 10.9788 15.1992 11.4854 15.4387 11.9988C15.1981 12.5106 14.9344 13.0219 14.6475 13.5219C14.3506 14.0375 14.0437 14.5281 13.7256 14.9825C13.1569 15.0319 12.5806 15.0588 11.9994 15.0588C11.4212 15.0588 10.8456 15.0312 10.2794 14.9862C9.96249 14.5319 9.65311 14.0456 9.35561 13.5338C9.0652 13.0338 8.8002 12.5271 8.56061 12.0138C8.79749 11.5006 9.06499 10.9881 9.35186 10.4875C9.64874 9.97188 9.95561 9.48313 10.2737 9.02875C10.8425 8.97875 11.4187 8.9525 12 8.9525V8.95375ZM11.9881 6.90313C12.3506 7.27813 12.6981 7.67625 13.025 8.09125L13.05 8.12437C12.7062 8.10875 12.355 8.09812 11.9994 8.09812C11.64 8.09812 11.285 8.10563 10.9369 8.12437C11.2844 7.67438 11.6281 7.27625 11.9925 6.89688L11.9875 6.90188L11.9881 6.90313ZM8.17499 4.52063C9.45811 4.75563 10.5625 5.39375 11.3806 6.29625L11.385 6.30125C10.8356 6.87875 10.3181 7.50063 9.84374 8.15625L9.80749 8.20875C8.88561 8.30438 8.05874 8.45188 7.25374 8.655L7.37624 8.62875C7.28874 8.24625 7.22374 7.87563 7.17811 7.52C6.99874 6.06125 7.21999 4.92687 7.73561 4.625C7.86436 4.56437 8.01499 4.52688 8.17374 4.52188H8.17561L8.17499 4.52063ZM15.8062 4.505V4.51C15.8144 4.51 15.8237 4.50938 15.8337 4.50938C15.9831 4.50938 16.1237 4.54625 16.2475 4.61125L16.2425 4.60875C16.7625 4.90688 16.9881 6.04188 16.8125 7.50188C16.7706 7.86125 16.7019 8.24 16.6175 8.62625C15.9394 8.4525 15.1137 8.30562 14.2712 8.21625L14.1912 8.20938C13.675 7.50063 13.1537 6.8775 12.5944 6.29063L12.6019 6.29813C13.4212 5.38563 14.525 4.74313 15.7731 4.51125L15.8081 4.50563L15.8062 4.505ZM15.81 3.65375C14.2837 3.88563 12.9625 4.62688 11.9975 5.69625L11.9925 5.70187C11.0206 4.63313 9.69936 3.89688 8.21061 3.67375L8.17561 3.66938C8.16749 3.66938 8.15749 3.66938 8.14749 3.66938C7.84061 3.66938 7.55249 3.75 7.30311 3.89125L7.31186 3.88688C6.23811 4.50625 5.99749 6.43625 6.55186 8.85812C4.17436 9.5925 2.62811 10.7662 2.62811 12.0031C2.62811 13.245 4.18249 14.4219 6.56686 15.1506C6.01686 17.5819 6.26249 19.515 7.33874 20.1337C7.57499 20.2694 7.85874 20.3488 8.16061 20.3488C8.17436 20.3488 8.18811 20.3488 8.20124 20.3481H8.19936C9.72561 20.1163 11.0469 19.3744 12.0119 18.3044L12.0169 18.2987C12.9887 19.3681 14.31 20.1044 15.7987 20.3275L15.8337 20.3319C15.8431 20.3319 15.855 20.3319 15.8662 20.3319C16.1712 20.3319 16.4581 20.2519 16.7062 20.1125L16.6975 20.1169C17.7706 19.4981 18.0119 17.5681 17.4575 15.1456C19.8262 14.4175 21.3725 13.2413 21.3725 12.0025C21.3725 10.7606 19.8181 9.58375 17.4337 8.85313C17.9837 6.42438 17.7381 4.48938 16.6619 3.87C16.4231 3.73313 16.1369 3.6525 15.8319 3.6525C15.8237 3.6525 15.8156 3.6525 15.8075 3.6525H15.8087L15.81 3.65375ZM13.7419 12.0031C13.7419 12.9675 12.96 13.7494 11.9956 13.7494C11.0312 13.7494 10.2494 12.9675 10.2494 12.0031C10.2494 11.0387 11.0312 10.2569 11.9956 10.2569C12.4781 10.2569 12.9144 10.4525 13.2306 10.7681C13.5469 11.0844 13.7419 11.5206 13.7419 12.0031Z" fill="black"/>
</svg>
