<svg width="24" height="24" viewBox="0 0 24 24" fill="none" xmlns="http://www.w3.org/2000/svg">
<path d="M15.8039 13.5983L15.803 13.5995C15.5635 13.947 14.8829 14.7215 14.6834 14.9417M15.8039 13.5983L13.8457 15.0637C13.8965 15.0838 13.9472 15.1034 13.9877 15.1185C14.0074 15.1258 14.0284 15.1335 14.0473 15.1398C14.0562 15.1428 14.0698 15.1473 14.085 15.1515C14.0923 15.1536 14.1052 15.1571 14.1209 15.1605L14.1218 15.1606C14.1309 15.1626 14.1736 15.1718 14.2276 15.1718C14.3568 15.1718 14.4514 15.1236 14.4874 15.1038C14.5322 15.0791 14.5667 15.0523 14.5876 15.0349C14.6295 15.0001 14.6635 14.9638 14.6834 14.9417M15.8039 13.5983C15.9203 13.4283 16.024 13.3919 16.1246 13.3919C16.2113 13.3919 16.309 13.418 16.4663 13.4732M15.8039 13.5983L16.4663 13.4732M14.6834 14.9417C14.6837 14.9413 14.6841 14.9409 14.6844 14.9406L14.3121 14.6067L14.6826 14.9426C14.6829 14.9423 14.6831 14.942 14.6834 14.9417ZM10.4292 8.29792C10.3901 8.22155 9.84977 6.95259 9.54975 6.24796C9.45499 6.02542 9.38421 5.85917 9.36075 5.80456C9.12573 5.2556 8.81518 5 8.38364 5C8.37251 5 8.36757 5 8.36263 5.00015C8.34979 5.00053 8.33698 5.00192 8.21571 5.00691M10.4292 8.29792L6.56825 12.4285C6.56323 12.4213 6.55847 12.4145 6.55397 12.4081C6.53163 12.3762 6.51575 12.3535 6.50639 12.3413C6.0539 11.7592 5 10.2287 5 8.60775C5 6.80671 5.88326 5.78261 6.40536 5.46133M10.4292 8.29792C10.4919 8.41801 10.686 8.78991 10.4588 9.23061L10.41 9.32629L10.4097 9.32683C10.3168 9.51075 10.2365 9.66962 10.0563 9.87421M10.4292 8.29792L8.23629 5.50648M8.21571 5.00691C8.01123 5.01533 6.8977 5.15841 6.40536 5.46133M8.21571 5.00691L8.23629 5.50648M8.21571 5.00691L8.23626 5.50649C8.1698 5.50923 7.8686 5.54204 7.51859 5.61356C7.15565 5.68773 6.83173 5.78607 6.6674 5.88717M6.40536 5.46133L6.6674 5.88717M6.40536 5.46133L6.6674 5.88717M12.8329 17.1172C14.9019 17.9238 15.8373 18 16.3255 18H16.3256C16.5381 18 16.7081 17.9839 16.8756 17.9678L16.8771 17.9677L16.984 17.9578L16.9872 17.9575C17.243 17.9353 17.7481 17.7593 18.2493 17.4477C18.7556 17.1329 19.1303 16.7584 19.2541 16.4227L19.2541 16.4226C19.3832 16.0724 19.4633 15.7087 19.4901 15.4074C19.5034 15.2568 19.5025 15.1322 19.492 15.039C19.4824 14.9537 19.4676 14.9208 19.4677 14.9198C19.4295 14.8615 19.3558 14.8108 19.0416 14.6636L12.8329 17.1172ZM12.8329 17.1172C10.7577 16.308 8.66978 14.5535 6.97757 12.1414C6.97389 12.1361 6.97005 12.1306 6.96611 12.125C6.9445 12.094 6.91997 12.0589 6.90318 12.037L6.90319 12.037L6.90115 12.0344C6.45468 11.4601 5.5 10.0469 5.5 8.60775C5.5 6.97447 6.29811 6.11443 6.66738 5.88718L12.8329 17.1172ZM6.6674 5.88717L8.23629 5.50648M8.23629 5.50648C8.32227 5.50295 8.35637 5.50112 8.3746 5.50014C8.37925 5.49988 8.38091 5.4998 8.38091 5.4998C8.38091 5.4998 8.37856 5.49991 8.3761 5.49996C8.3749 5.49999 8.37383 5.5 8.37383 5.50001C8.37383 5.50001 8.37612 5.5 8.38364 5.5C8.4902 5.5 8.56171 5.52778 8.62808 5.58242C8.70556 5.64622 8.8017 5.76916 8.9011 6.00134L8.90135 6.00192C8.92461 6.05608 8.99479 6.22089 9.08897 6.4421C9.19152 6.68293 9.32252 6.9906 9.45242 7.29508C9.69324 7.85952 9.94782 8.4549 9.98419 8.52589L9.98417 8.5259L9.98602 8.52942C10.0406 8.63396 10.119 8.7985 10.0144 9.00145L10.0133 9.00354L9.96453 9.09921L9.96376 9.10074C9.87411 9.2781 9.81723 9.38902 9.68156 9.54319M10.0563 9.87421L9.68215 9.54253C9.68195 9.54275 9.68176 9.54297 9.68156 9.54319M10.0563 9.87421C9.99842 9.9395 9.93947 10.0088 9.88062 10.0779L10.0563 9.87421ZM9.68156 9.54319C9.62011 9.61254 9.55824 9.68526 9.50033 9.75333L9.49989 9.75385M9.68156 9.54319L9.49989 9.75385M9.49989 9.75385C9.3709 9.90538 9.25934 10.0357 9.16196 10.1297L9.16195 10.1297L9.15962 10.132L9.15755 10.134C9.138 10.1532 9.1004 10.1899 9.06564 10.2277C9.04792 10.2469 9.02407 10.2738 9.00118 10.304C9.0008 10.3045 9.00034 10.3051 8.99979 10.3058C8.98694 10.3226 8.92915 10.398 8.9001 10.502L8.72301 11.1365H9.0935C9.31861 11.4623 9.79714 12.078 10.4546 12.7387C11.2431 13.5311 12.3231 14.4231 13.574 14.9534L9.49989 9.75385ZM16.4663 13.4732C16.6294 13.5305 17.2385 13.8103 17.8533 14.0993M16.4663 13.4732L17.8533 14.0993M17.8533 14.0993C18.3438 14.3299 18.8435 14.5689 18.9954 14.6415M17.8533 14.0993L18.9954 14.6415M18.9954 14.6415C19.0229 14.6546 19.039 14.6623 19.0416 14.6636L18.9954 14.6415ZM9.38169 10.6365L9.50154 10.6699L9.38169 10.6365Z" fill="black" stroke="black"/>
</svg>
