<svg width="24" height="24" viewBox="0 0 24 24" fill="none" xmlns="http://www.w3.org/2000/svg">
<path d="M10.588 10.8078V10.0345C10.3289 9.99639 10.0674 9.97679 9.80571 9.97546C6.60447 9.97546 4 12.673 4 15.9882C4 18.0217 4.98141 19.8219 6.47853 20.9105C5.47605 19.8003 4.91865 18.337 4.9195 16.817C4.9195 13.549 7.44994 10.8841 10.588 10.8078Z" fill="black"/>
<path d="M10.725 19.5626C12.1534 19.5626 13.3184 18.3859 13.3716 16.9195L13.3765 3.82884H15.6858C15.6365 3.55542 15.6116 3.27804 15.6114 3H12.4572L12.4518 16.0911C12.3993 17.5571 11.2336 18.7333 9.80568 18.7333C9.37699 18.7336 8.95468 18.6254 8.57556 18.4181C9.07233 19.1359 9.87227 19.5617 10.725 19.5626ZM19.9995 8.27243V7.54494C19.1509 7.54582 18.3203 7.29003 17.6099 6.8093C18.2329 7.55199 19.0713 8.06533 20 8.27243" fill="black"/>
<path d="M15.611 15.9878V9.3496C16.8894 10.3018 18.4248 10.8129 19.9994 10.811V8.27246C19.0709 8.06514 18.2325 7.55158 17.6098 6.80867C16.602 6.12987 15.9065 5.05317 15.6854 3.82953H13.3763L13.3714 16.9202C13.3184 18.3862 12.1532 19.5629 10.7248 19.5629C9.87229 19.562 9.07214 19.1359 8.57559 18.4185C7.70268 17.9446 7.15527 17.0087 7.15421 15.988C7.15591 14.4722 8.34199 13.2439 9.8057 13.2422C10.0784 13.2422 10.3403 13.2884 10.588 13.3693V10.8079C7.44993 10.8841 4.91949 13.5491 4.91949 16.8171C4.91949 18.3974 5.51243 19.8361 6.47852 20.9106C7.45248 21.6206 8.61473 22.0011 9.8057 22C13.0071 22 15.611 19.3029 15.611 15.9878Z" fill="black"/>
</svg>
