<svg width="24" height="24" viewBox="0 0 24 24" fill="none" xmlns="http://www.w3.org/2000/svg">
<path fill-rule="evenodd" clip-rule="evenodd" d="M12 22C17.5228 22 22 17.5228 22 12C22 6.47715 17.5228 2 12 2C6.47715 2 2 6.47715 2 12C2 17.5228 6.47715 22 12 22ZM17.3503 8.11033C17.9313 8.04092 18.4849 7.88692 19 7.65825C18.615 8.234 18.1279 8.73975 17.5667 9.14517C17.7487 13.1847 14.7358 17.6887 9.403 17.6887C7.78133 17.6887 6.27108 17.2133 5 16.3983C6.52367 16.578 8.045 16.1551 9.2525 15.2083C7.99483 15.185 6.93433 14.3549 6.56917 13.2139C7.0195 13.3003 7.46225 13.2746 7.8665 13.1649C6.48517 12.8878 5.53142 11.643 5.56292 10.3124C5.94967 10.5277 6.393 10.6566 6.86317 10.6718C5.5845 9.81658 5.22225 8.12783 5.97475 6.83692C7.39167 8.57467 9.508 9.718 11.8944 9.83758C11.4756 8.0415 12.8382 6.31133 14.6927 6.31133C15.5187 6.31133 16.2659 6.66017 16.7892 7.21842C17.4437 7.0895 18.0585 6.85033 18.6133 6.52133C18.3992 7.19217 17.9436 7.75508 17.3503 8.11033Z" fill="black"/>
</svg>
