<svg width="24" height="24" viewBox="0 0 24 24" fill="none" xmlns="http://www.w3.org/2000/svg">
<mask id="path-1-inside-1_63_113" fill="white">
<path d="M6.02926 6L10.6623 12.6187L6 18H7.0493L11.1312 13.2886L14.4292 18H18L13.1063 11.009L17.4459 6H16.3966L12.6374 10.3391L9.60007 6H6.02926ZM7.57233 6.8258H9.21277L16.4567 17.1741H14.8162L7.57233 6.8258Z"/>
</mask>
<path d="M6.02926 6V4H2.18796L4.39079 7.14692L6.02926 6ZM10.6623 12.6187L12.1739 13.9283L13.1952 12.7495L12.3008 11.4718L10.6623 12.6187ZM6 18L4.48842 16.6904L1.62097 20H6V18ZM7.0493 18V20H7.96276L8.5609 19.3096L7.0493 18ZM11.1312 13.2886L12.7696 12.1417L11.2989 10.0407L9.61956 11.979L11.1312 13.2886ZM14.4292 18L12.7907 19.1469L13.3879 20H14.4292V18ZM18 18V20H21.8413L19.6385 16.8531L18 18ZM13.1063 11.009L11.5947 9.69939L10.5734 10.8782L11.4678 12.1559L13.1063 11.009ZM17.4459 6L18.9575 7.30961L21.8249 4H17.4459V6ZM16.3966 6V4H15.4831L14.885 4.69041L16.3966 6ZM12.6374 10.3391L10.999 11.486L12.4697 13.5871L14.149 11.6487L12.6374 10.3391ZM9.60007 6L11.2385 4.85308L10.6414 4H9.60007V6ZM7.57233 6.8258V4.8258H3.73099L5.93388 7.97274L7.57233 6.8258ZM9.21277 6.8258L10.8512 5.67886L10.2541 4.8258H9.21277V6.8258ZM16.4567 17.1741V19.1741H20.298L18.0951 16.0271L16.4567 17.1741ZM14.8162 17.1741L13.1778 18.321L13.7749 19.1741H14.8162V17.1741ZM4.39079 7.14692L9.02386 13.7656L12.3008 11.4718L7.66772 4.85308L4.39079 7.14692ZM9.15074 11.3091L4.48842 16.6904L7.51158 19.3096L12.1739 13.9283L9.15074 11.3091ZM6 20H7.0493V16H6V20ZM8.5609 19.3096L12.6428 14.5982L9.61956 11.979L5.53771 16.6904L8.5609 19.3096ZM9.4927 14.4355L12.7907 19.1469L16.0676 16.8531L12.7696 12.1417L9.4927 14.4355ZM14.4292 20H18V16H14.4292V20ZM19.6385 16.8531L14.7447 9.86207L11.4678 12.1559L16.3615 19.1469L19.6385 16.8531ZM14.6179 12.3186L18.9575 7.30961L15.9343 4.69039L11.5947 9.69939L14.6179 12.3186ZM17.4459 4H16.3966V8H17.4459V4ZM14.885 4.69041L11.1258 9.02952L14.149 11.6487L17.9082 7.30959L14.885 4.69041ZM14.2759 9.19219L11.2385 4.85308L7.9616 7.14692L10.999 11.486L14.2759 9.19219ZM9.60007 4H6.02926V8H9.60007V4ZM7.57233 8.8258H9.21277V4.8258H7.57233V8.8258ZM7.57432 7.97274L14.8182 18.321L18.0951 16.0271L10.8512 5.67886L7.57432 7.97274ZM16.4567 15.1741H14.8162V19.1741H16.4567V15.1741ZM16.4547 16.0271L9.21079 5.67886L5.93388 7.97274L13.1778 18.321L16.4547 16.0271Z" fill="black" mask="url(#path-1-inside-1_63_113)"/>
</svg>
