<svg width="24" height="24" viewBox="0 0 24 24" fill="none" xmlns="http://www.w3.org/2000/svg">
<path fill-rule="evenodd" clip-rule="evenodd" d="M12 22C17.5228 22 22 17.5228 22 12C22 6.47715 17.5228 2 12 2C6.47715 2 2 6.47715 2 12C2 17.5228 6.47715 22 12 22ZM9.86066 6.37227L11.4549 8.64971L11.9237 9.31955L12.6374 10.3391L13.4538 9.39678L13.9877 8.78051L16.3966 6H17.4459L16.996 6.51929L16.3966 7.21114L13.9227 10.0666L13.2368 10.8584L13.1063 11.009L13.82 12.0286L16.0218 15.1741L16.4567 15.7953L16.6 16L17.1044 16.7206L18 18H16.4567H15.5587H15.2768H14.8162H14.5935H14.4292L14.1685 17.6275L12.3137 14.978L11.8448 14.3081L11.1312 13.2886L10.3147 14.231L9.78085 14.8472L7.0493 18H6L6.44992 17.4807L7.0493 16.7889L9.84582 13.5611L10.5318 12.7693L10.6623 12.6187L9.94864 11.5992L8.00731 8.8258L7.57233 8.20441L7.42925 8L6.92467 7.27917L6.02926 6H7.57233H8.47056H8.75203H9.21277H9.43559H9.60007L9.86066 6.37227ZM9.21277 6.8258L9.60007 7.37907L11.3898 9.93582L11.9896 10.7926L12.4585 11.4624L13.2861 12.6448L15.0567 15.1741L15.6348 16L15.9172 16.4034L16.4567 17.1741H15.6091H14.9805H14.8162L14.4292 16.6211L12.3787 13.6919L11.7789 12.8351L11.31 12.1653L10.4824 10.983L8.97236 8.8258L8.39429 8L8.11182 7.59648L7.57233 6.8258H8.42035H9.04862H9.21277Z" fill="black"/>
</svg>
