<svg width="24" height="24" viewBox="0 0 24 24" fill="none" xmlns="http://www.w3.org/2000/svg">
<g clip-path="url(#clip0_54_275)">
<path d="M19 7.65826C18.4849 7.88692 17.9313 8.04092 17.3503 8.11034C17.9436 7.75509 18.3992 7.19217 18.6132 6.52134C18.0585 6.85034 17.4437 7.08951 16.7892 7.21842C16.2659 6.66017 15.5187 6.31134 14.6927 6.31134C12.8382 6.31134 11.4756 8.04151 11.8944 9.83759C9.508 9.71801 7.39167 8.57467 5.97475 6.83692C5.22225 8.12784 5.5845 9.81659 6.86317 10.6718C6.393 10.6566 5.94967 10.5277 5.56292 10.3124C5.53142 11.643 6.48517 12.8878 7.8665 13.1649C7.46225 13.2746 7.0195 13.3003 6.56917 13.2139C6.93433 14.3549 7.99483 15.185 9.2525 15.2083C8.045 16.1551 6.52367 16.578 5 16.3983C6.27108 17.2133 7.78133 17.6887 9.403 17.6887C14.7358 17.6887 17.7487 13.1848 17.5667 9.14517C18.1279 8.73976 18.615 8.23401 19 7.65826Z" fill="black"/>
</g>
<defs>
<clipPath id="clip0_54_275">
<rect width="14" height="14" fill="white" transform="translate(5 5)"/>
</clipPath>
</defs>
</svg>
