<svg width="24" height="24" viewBox="0 0 24 24" fill="none" xmlns="http://www.w3.org/2000/svg">
<path d="M18.7969 18.2402L15.3873 12.5006L18.7969 6.75857L20.4428 12.4994L18.7963 18.2389L18.7969 18.2402ZM11.1984 17.689L6.91074 13.4338H13.7268L17.1352 19.1739L11.1978 17.6903L11.1984 17.689ZM11.1984 7.31098L17.1352 5.82732L13.7275 11.5675H6.91011L11.1984 7.31098ZM22 10.5469L19.9208 3L12.1595 5.02277L11.0115 6.99423L8.68017 6.97713L3 12.5006L8.6808 18.0248L11.0109 18.0064L12.162 19.9779L19.9201 22L22 14.4563L20.8191 12.5006L22 10.5469Z" fill="black"/>
</svg>
