<svg width="24" height="24" viewBox="0 0 24 24" fill="none" xmlns="http://www.w3.org/2000/svg">
<path fill-rule="evenodd" clip-rule="evenodd" d="M12.3469 22C17.6782 22 22 17.7361 22 12.4762C22 7.21635 17.6782 2.95239 12.3469 2.95239C7.01566 2.95239 2.69382 7.21635 2.69382 12.4762C2.69382 17.7361 7.01566 22 12.3469 22ZM16.6833 12.9222C16.7113 12.9353 16.7283 12.9433 16.7321 12.945L16.7322 12.9451C16.9222 13.0324 17.0723 13.1013 17.1595 13.2383C17.2867 13.4399 17.2363 13.9952 17.0451 14.5035C16.8023 15.1488 15.7352 15.6778 15.2496 15.719L15.1784 15.7255C15.0661 15.7361 14.9388 15.748 14.7798 15.748H14.7798C14.4014 15.748 13.7357 15.686 12.3301 15.1488C10.8701 14.5908 9.42979 13.3945 8.27446 11.7803C8.27111 11.7756 8.26794 11.7711 8.26494 11.7669C8.25004 11.7461 8.23946 11.7312 8.23321 11.7232C7.93153 11.3428 7.22888 10.3427 7.22888 9.28335C7.22888 8.10636 7.81776 7.43709 8.16586 7.22714C8.49411 7.02918 9.23651 6.93567 9.37284 6.93017C9.45369 6.92691 9.46223 6.926 9.47079 6.92575C9.47409 6.92565 9.47738 6.92565 9.4848 6.92565C9.77252 6.92565 9.97956 7.09269 10.1363 7.45144C10.1519 7.48712 10.1991 7.59575 10.2622 7.74117C10.4623 8.20164 10.8225 9.03096 10.8486 9.08088C10.8904 9.15936 11.0198 9.4024 10.8683 9.6904L10.8358 9.75293L10.8356 9.75328C10.7736 9.87347 10.7201 9.9773 10.6 10.111C10.5614 10.1537 10.5221 10.1989 10.4829 10.2441L10.4826 10.2444C10.3998 10.3398 10.3143 10.4383 10.2353 10.513C10.2083 10.5389 10.1559 10.5892 10.1502 10.6091C10.1502 10.6091 10.1503 10.6093 10.1503 10.6096C10.1508 10.6126 10.1536 10.6299 10.1745 10.664C10.3366 10.9264 11.5184 12.4824 13.0754 13.1295C13.1434 13.1578 13.3681 13.2462 13.3811 13.2462C13.3955 13.2462 13.4197 13.2231 13.4374 13.2038C13.573 13.0571 14.012 12.5663 14.1569 12.3601C14.2852 12.1765 14.4498 12.0831 14.6458 12.0831C14.7658 12.0831 14.8786 12.1184 14.9839 12.1546C15.2168 12.2348 16.423 12.8002 16.6833 12.9222Z" fill="black"/>
<path d="M12.1315 2C6.73936 2 2.35254 6.16537 2.35254 11.2853C2.35254 12.9412 2.81576 14.5622 3.69326 15.9809L2.01369 20.7208C1.9824 20.8092 2.00567 20.9069 2.074 20.9735C2.12332 21.0216 2.19022 21.0476 2.25855 21.0476C2.28473 21.0476 2.3111 21.0438 2.33683 21.036L7.50297 19.4654C8.91667 20.1881 10.5145 20.5695 12.1315 20.5695C17.5231 20.5696 21.9095 16.4046 21.9095 11.2853C21.9095 6.16537 17.5231 2 12.1315 2ZM12.1315 18.6354C10.6099 18.6354 9.13613 18.215 7.86929 17.4197C7.82669 17.393 7.77724 17.3792 7.72747 17.3792C7.70116 17.3792 7.67478 17.3831 7.64912 17.3908L5.0612 18.1779L5.89663 15.8199C5.92365 15.7435 5.91014 15.6594 5.86037 15.5943C4.89566 14.3332 4.3857 12.8432 4.3857 11.2853C4.3857 7.23191 7.86043 3.9342 12.1314 3.9342C16.4019 3.9342 19.8762 7.23191 19.8762 11.2853C19.8763 15.3382 16.402 18.6354 12.1315 18.6354Z" fill="black"/>
</svg>
