<svg width="24" height="24" viewBox="0 0 24 24" fill="none" xmlns="http://www.w3.org/2000/svg">
<path d="M14.6279 13.156L14.627 13.1572C14.4599 13.4057 13.9971 13.9447 13.8646 14.0944C13.8491 14.112 13.8205 14.1435 13.784 14.1746C13.7657 14.1902 13.7337 14.2158 13.6909 14.24C13.6573 14.2589 13.5632 14.3086 13.4328 14.3086C13.3777 14.3086 13.3343 14.299 13.3254 14.297L13.3246 14.2969C13.3089 14.2934 13.2963 14.2899 13.2894 14.2879C13.2752 14.2839 13.263 14.2797 13.2559 14.2773C13.2406 14.272 13.2245 14.266 13.2107 14.2608C13.182 14.2498 13.1469 14.2358 13.1124 14.2219L14.6279 13.156ZM14.6279 13.156C14.6594 13.1088 14.6815 13.0939 14.6871 13.0906C14.69 13.0889 14.6913 13.0885 14.692 13.0883C14.6927 13.0881 14.696 13.0873 14.7033 13.0873C14.7124 13.0873 14.7293 13.0887 14.7584 13.0959C14.789 13.1035 14.8239 13.1149 14.8739 13.1329C14.9727 13.1686 15.3697 13.355 15.7865 13.5557C16.1214 13.717 16.4778 13.8916 16.5634 13.9336C16.5751 13.9393 16.5817 13.9426 16.5826 13.943C16.686 13.9926 16.739 14.0191 16.7783 14.0448C16.7835 14.0482 16.7878 14.0512 16.7912 14.0537C16.7922 14.06 16.7933 14.0676 16.7943 14.0768C16.8 14.1286 16.8011 14.204 16.7927 14.3005C16.776 14.4937 16.7253 14.7305 16.643 14.9594L16.6429 14.9594C16.5774 15.1416 16.3621 15.3743 16.0345 15.583C15.7103 15.7895 15.3987 15.8951 15.2657 15.9069L15.2624 15.9072L15.1908 15.9141L15.1893 15.9142C15.0774 15.9252 14.9709 15.9354 14.8379 15.9354H14.8378C14.539 15.9354 13.9347 15.89 12.5625 15.3419C11.2119 14.8023 9.83675 13.6243 8.7155 11.9868L8.30295 12.2693M14.6279 13.156L8.66184 11.9098M8.66184 11.9098L8.66183 11.9098C8.67543 11.928 8.69461 11.9561 8.70875 11.9769C8.71125 11.9805 8.71359 11.984 8.71572 11.9871L8.30295 12.2693M8.66184 11.9098L8.65984 11.9072M8.66184 11.9098L8.65984 11.9072M8.30295 12.2693C8.29959 12.2644 8.2964 12.2597 8.29338 12.2553C8.27842 12.2334 8.26779 12.2178 8.26152 12.2094L8.30295 12.2693ZM8.65984 11.9072C8.36353 11.5166 7.75262 10.5821 7.75262 9.64752C7.75262 8.57387 8.26394 8.0354 8.46049 7.91147L8.65984 11.9072ZM8.97485 7.74619C8.73302 7.79683 8.54282 7.85959 8.46052 7.91145L8.97485 7.74619ZM8.97485 7.74619C9.08493 7.72315 9.19023 7.70567 9.2751 7.69373M8.97485 7.74619L9.2751 7.69373M9.2751 7.69373C9.31743 7.68778 9.35352 7.68337 9.38149 7.68039M9.2751 7.69373L9.38149 7.68039M9.38149 7.68039C9.39547 7.67889 9.40673 7.67783 9.41523 7.67712M9.38149 7.68039L9.41523 7.67712M9.41523 7.67712C9.42293 7.67648 9.42674 7.67627 9.42737 7.67624M9.41523 7.67712L9.42737 7.67624M9.42737 7.67624C9.42748 7.67623 9.42749 7.67623 9.42741 7.67623L9.42737 7.67624ZM10.7845 12.5885C11.3197 13.1394 12.0604 13.7683 12.9265 14.1446L9.51919 7.67194C9.53976 7.67197 9.54943 7.67494 9.55287 7.67617C9.556 7.67728 9.56223 7.67984 9.57297 7.6889C9.59817 7.71016 9.65041 7.7697 9.71187 7.91679L9.71211 7.91736C9.72763 7.95438 9.77444 8.06702 9.83734 8.21837C9.90599 8.38357 9.99381 8.5949 10.081 8.80436C10.2401 9.18626 10.4141 9.60353 10.4416 9.65853L10.4416 9.65854L10.4434 9.66203C10.4605 9.69567 10.473 9.7229 10.4784 9.75495C10.4825 9.77968 10.4829 9.80862 10.462 9.85013L10.462 9.85012L10.4609 9.8522L10.4283 9.91785L10.4283 9.91785L10.4275 9.91937C10.3684 10.0392 10.3374 10.1004 10.2603 10.1901C10.2182 10.2388 10.176 10.2897 10.1376 10.3359L10.1368 10.3368C10.1368 10.3369 10.1368 10.3369 10.1367 10.3369C10.0489 10.4427 9.97951 10.5254 9.92103 10.5833L9.92103 10.5832L9.91872 10.5856L9.91703 10.5872C9.90398 10.6003 9.8762 10.6282 9.85002 10.6573C9.83661 10.6722 9.81692 10.6948 9.79734 10.7213C9.79706 10.7217 9.79669 10.7222 9.79623 10.7228C9.78589 10.7365 9.73208 10.8081 9.70482 10.9082L9.53279 11.5396H9.90509C10.0765 11.7835 10.3821 12.1742 10.7845 12.5885ZM10.1872 11.0396L10.2707 11.0623L10.2117 11.0972L10.2709 11.0624L10.4409 11.1087L10.6193 11.289C10.611 11.3026 10.6042 11.3121 10.601 11.3163C10.5958 11.3234 10.5924 11.3274 10.5923 11.3274C10.5923 11.3274 10.5928 11.3269 10.5938 11.3257C10.6008 11.3179 10.6112 11.3073 10.6256 11.2929C10.6893 11.2298 10.7538 11.1567 10.8125 11.0876C10.961 11.2864 11.1968 11.5776 11.5019 11.8918L10.1872 11.0396Z" fill="black" stroke="black"/>
<path d="M12.1775 2C6.7609 2 2.35414 6.37364 2.35414 11.7495C2.35414 13.4883 2.81947 15.1903 3.70096 16.6799L2.01375 21.6569C1.98232 21.7497 2.0057 21.8523 2.07434 21.9221C2.12388 21.9727 2.19109 22 2.25973 22C2.28602 22 2.31252 21.996 2.33836 21.9878L7.52798 20.3387C8.94811 21.0975 10.5532 21.498 12.1776 21.498C17.5937 21.4981 22 17.1249 22 11.7495C22 6.37364 17.5937 2 12.1775 2ZM12.1775 19.4671C10.649 19.4671 9.16856 19.0258 7.89596 18.1907C7.85317 18.1626 7.8035 18.1482 7.7535 18.1482C7.72707 18.1482 7.70057 18.1522 7.67479 18.1604L5.07512 18.9868L5.91434 16.5108C5.94148 16.4307 5.92791 16.3423 5.87791 16.274C4.90882 14.9499 4.39655 13.3854 4.39655 11.7495C4.39655 7.49351 7.88707 4.03091 12.1775 4.03091C16.4673 4.03091 19.9575 7.49351 19.9575 11.7495C19.9575 16.0051 16.4675 19.4671 12.1775 19.4671Z" fill="black"/>
</svg>
